<svg width="23" height="20" viewBox="0 0 23 20" fill="none" xmlns="http://www.w3.org/2000/svg">
  <path d="M11 0V6H0C1.16178 3.19367 4.11058 1.04249 7.80948 0.360695C8.8613 0.166609 9.92855 0.0466478 11 0Z"
    fill="url(#paint0_linear_0_1)" />
  <path
    d="M12 0V12.5436H22.4385C22.8061 10.6293 22.7356 8.66703 22.2269 6.77091C21.3746 3.59244 18.5363 1.11037 14.9017 0.365073C13.9456 0.168631 12.9745 0.047214 12 0Z"
    fill="url(#paint1_linear_0_1)" />
  <path d="M22 13H12V20C12.9741 19.9456 13.9448 19.8056 14.9005 19.5792C18.2631 18.7838 20.9439 16.2741 22 13Z"
    fill="url(#paint2_linear_0_1)" />
  <path
    d="M11 20V7H0.238521C-0.140518 8.9839 -0.0678038 11.0176 0.456673 12.9827C1.33528 16.2769 4.2615 18.8493 8.00855 19.6216C8.99474 19.8253 9.99541 19.9511 11 20Z"
    fill="url(#paint3_linear_0_1)" />
  <defs>
    <linearGradient id="paint0_linear_0_1" x1="-0.732024" y1="-0.0924619" x2="9.6381" y2="25.9282"
      gradientUnits="userSpaceOnUse">
      <stop stop-color="#09C6F9" />
      <stop offset="1" stop-color="#045DE9" />
    </linearGradient>
    <linearGradient id="paint1_linear_0_1" x1="-0.520281" y1="-0.0935833" x2="10.7908" y2="25.4092"
      gradientUnits="userSpaceOnUse">
      <stop stop-color="#09C6F9" />
      <stop offset="1" stop-color="#045DE9" />
    </linearGradient>
    <linearGradient id="paint2_linear_0_1" x1="-0.515126" y1="-3.43153" x2="13.7467" y2="24.4534"
      gradientUnits="userSpaceOnUse">
      <stop stop-color="#09C6F9" />
      <stop offset="1" stop-color="#045DE9" />
    </linearGradient>
    <linearGradient id="paint3_linear_0_1" x1="-6.18453e-05" y1="-1.06756" x2="11.764" y2="25.3173"
      gradientUnits="userSpaceOnUse">
      <stop stop-color="#09C6F9" />
      <stop offset="1" stop-color="#045DE9" />
    </linearGradient>
  </defs>
</svg>