<svg width="24" height="23" viewBox="0 0 24 23" fill="none" xmlns="http://www.w3.org/2000/svg">
  <path
    d="M6.69426 0.250562C5.55214 0.0170246 4.36365 0.0170246 3.22153 0.250562C1.72577 0.556606 0.557565 1.57591 0.206813 2.88102C-0.0608403 3.87756 -0.0608403 4.91456 0.206813 5.9111C0.557565 7.21621 1.72577 8.2351 3.22153 8.54115C4.36365 8.77511 5.55214 8.77511 6.69426 8.54115C8.19002 8.2351 9.35775 7.21621 9.7085 5.9111C9.97664 4.91456 9.97664 3.87756 9.7085 2.88102C9.35775 1.57591 8.19002 0.556606 6.69426 0.250562Z"
    fill="url(#paint0_linear_0_1)" />
  <path
    d="M20.6943 0.250562C19.5521 0.0170246 18.3636 0.0170246 17.2215 0.250562C15.7258 0.556606 14.5576 1.57591 14.2068 2.88102C13.9392 3.87756 13.9392 4.91456 14.2068 5.9111C14.5576 7.21621 15.7258 8.2351 17.2215 8.54115C18.3636 8.77511 19.5521 8.77511 20.6943 8.54115C22.19 8.2351 23.3577 7.21621 23.7085 5.9111C23.9766 4.91456 23.9766 3.87756 23.7085 2.88102C23.3577 1.57591 22.19 0.556606 20.6943 0.250562Z"
    fill="url(#paint1_linear_0_1)" />
  <path
    d="M6.69426 14.2506C5.55214 14.017 4.36365 14.017 3.22153 14.2506C1.72577 14.5566 0.557565 15.5759 0.206813 16.881C-0.0608403 17.8776 -0.0608403 18.9146 0.206813 19.9111C0.557565 21.2162 1.72577 22.2351 3.22153 22.5412C4.36365 22.7751 5.55214 22.7751 6.69426 22.5412C8.19002 22.2351 9.35775 21.2162 9.7085 19.9111C9.97664 18.9146 9.97664 17.8776 9.7085 16.881C9.35775 15.5759 8.19002 14.5566 6.69426 14.2506Z"
    fill="url(#paint2_linear_0_1)" />
  <path
    d="M20.6943 14.2506C19.5521 14.017 18.3636 14.017 17.2215 14.2506C15.7258 14.5566 14.5576 15.5759 14.2068 16.881C13.9392 17.8776 13.9392 18.9146 14.2068 19.9111C14.5576 21.2162 15.7258 22.2351 17.2215 22.5412C18.3636 22.7751 19.5521 22.7751 20.6943 22.5412C22.19 22.2351 23.3577 21.2162 23.7085 19.9111C23.9766 18.9146 23.9766 17.8776 23.7085 16.881C23.3577 15.5759 22.19 14.5566 20.6943 14.2506Z"
    fill="url(#paint3_linear_0_1)" />
  <defs>
    <linearGradient id="paint0_linear_0_1" x1="-13.2807" y1="-11.6114" x2="-1.96956" y2="13.8914"
      gradientUnits="userSpaceOnUse">
      <stop stop-color="#09C6F9" />
      <stop offset="1" stop-color="#045DE9" />
    </linearGradient>
    <linearGradient id="paint1_linear_0_1" x1="0.7193" y1="-11.6114" x2="12.0304" y2="13.8914"
      gradientUnits="userSpaceOnUse">
      <stop stop-color="#09C6F9" />
      <stop offset="1" stop-color="#045DE9" />
    </linearGradient>
    <linearGradient id="paint2_linear_0_1" x1="-13.2807" y1="2.3886" x2="-1.96956" y2="27.8914"
      gradientUnits="userSpaceOnUse">
      <stop stop-color="#09C6F9" />
      <stop offset="1" stop-color="#045DE9" />
    </linearGradient>
    <linearGradient id="paint3_linear_0_1" x1="0.7193" y1="2.3886" x2="12.0304" y2="27.8914"
      gradientUnits="userSpaceOnUse">
      <stop stop-color="#09C6F9" />
      <stop offset="1" stop-color="#045DE9" />
    </linearGradient>
  </defs>
</svg>