<svg width="27" height="26" viewBox="0 0 27 26" fill="none" xmlns="http://www.w3.org/2000/svg">
  <path
    d="M13.5 26C20.9558 26 27 20.1797 27 13C27 5.8203 20.9558 0 13.5 0C6.04416 0 0 5.8203 0 13C0 20.1797 6.04416 26 13.5 26Z"
    fill="url(#paint0_linear_0_1)" />
  <path
    d="M7.63299 17V8.27273H12.8659V9.21023H8.68981V12.1591H12.4739V13.0966H8.68981V17H7.63299ZM14.676 17V8.27273H17.7271C18.335 8.27273 18.8365 8.37784 19.2314 8.58807C19.6262 8.79545 19.9203 9.07528 20.1135 9.42756C20.3066 9.77699 20.4032 10.1648 20.4032 10.5909C20.4032 10.9659 20.3365 11.2756 20.2029 11.5199C20.0723 11.7642 19.899 11.9574 19.6831 12.0994C19.47 12.2415 19.2385 12.3466 18.9885 12.4148V12.5C19.2555 12.517 19.524 12.6108 19.7939 12.7812C20.0637 12.9517 20.2896 13.196 20.4714 13.5142C20.6532 13.8324 20.7441 14.2216 20.7441 14.6818C20.7441 15.1193 20.6447 15.5128 20.4458 15.8622C20.247 16.2116 19.9331 16.4886 19.5041 16.6932C19.0751 16.8977 18.5169 17 17.8294 17H14.676ZM15.7328 16.0625H17.8294C18.5197 16.0625 19.0098 15.929 19.2995 15.6619C19.5922 15.392 19.7385 15.0653 19.7385 14.6818C19.7385 14.3864 19.6632 14.1136 19.5126 13.8636C19.362 13.6108 19.1475 13.4091 18.8691 13.2585C18.5907 13.1051 18.2612 13.0284 17.8805 13.0284H15.7328V16.0625ZM15.7328 12.108H17.693C18.0112 12.108 18.2981 12.0455 18.5538 11.9205C18.8123 11.7955 19.0169 11.6193 19.1674 11.392C19.3208 11.1648 19.3975 10.8977 19.3975 10.5909C19.3975 10.2074 19.264 9.8821 18.997 9.61506C18.7299 9.34517 18.3066 9.21023 17.7271 9.21023H15.7328V12.108Z"
    fill="#FFFDFD" />
  <defs>
    <linearGradient id="paint0_linear_0_1" x1="1.62841e-07" y1="-0.12025" x2="15.4858" y2="31.5155"
      gradientUnits="userSpaceOnUse">
      <stop stop-color="#09C6F9" />
      <stop offset="1" stop-color="#045DE9" />
    </linearGradient>
  </defs>
</svg>