<svg width="27" height="26" viewBox="0 0 27 26" fill="none" xmlns="http://www.w3.org/2000/svg">
  <path
    d="M13.5 26C20.9558 26 27 20.1797 27 13C27 5.8203 20.9558 0 13.5 0C6.04416 0 0 5.8203 0 13C0 20.1797 6.04416 26 13.5 26Z"
    fill="url(#paint0_linear_0_1)" />
  <path
    d="M10.0668 8.27273V17H9.00994V8.27273H10.0668ZM18.1516 11C18.0579 10.7131 17.9343 10.456 17.7809 10.2287C17.6303 9.99858 17.4499 9.80256 17.2397 9.64062C17.0323 9.47869 16.7965 9.35511 16.5323 9.26989C16.2681 9.18466 15.9783 9.14205 15.663 9.14205C15.146 9.14205 14.6758 9.27557 14.2525 9.54261C13.8292 9.80966 13.4925 10.2031 13.2425 10.723C12.9925 11.2429 12.8675 11.8807 12.8675 12.6364C12.8675 13.392 12.994 14.0298 13.2468 14.5497C13.4996 15.0696 13.842 15.4631 14.2738 15.7301C14.7056 15.9972 15.1914 16.1307 15.7312 16.1307C16.2312 16.1307 16.6715 16.0241 17.0522 15.8111C17.4357 15.5952 17.734 15.2912 17.9471 14.8991C18.163 14.5043 18.271 14.0398 18.271 13.5057L18.5948 13.5739H15.9698V12.6364H19.2937V13.5739C19.2937 14.2926 19.1403 14.9176 18.8335 15.4489C18.5295 15.9801 18.109 16.392 17.5721 16.6847C17.038 16.9744 16.4244 17.1193 15.7312 17.1193C14.9585 17.1193 14.2795 16.9375 13.6942 16.5739C13.1119 16.2102 12.6573 15.6932 12.3306 15.0227C12.0067 14.3523 11.8448 13.5568 11.8448 12.6364C11.8448 11.946 11.9371 11.3253 12.1218 10.7741C12.3093 10.2202 12.5735 9.74858 12.9144 9.35938C13.2553 8.97017 13.6587 8.67188 14.1246 8.46449C14.5906 8.2571 15.1033 8.15341 15.663 8.15341C16.1232 8.15341 16.5522 8.22301 16.9499 8.36222C17.3505 8.49858 17.707 8.69318 18.0195 8.94602C18.3349 9.19602 18.5977 9.49574 18.8079 9.84517C19.0181 10.1918 19.163 10.5767 19.2425 11H18.1516Z"
    fill="#FFFDFD" />
  <defs>
    <linearGradient id="paint0_linear_0_1" x1="1.62841e-07" y1="-0.12025" x2="15.4858" y2="31.5155"
      gradientUnits="userSpaceOnUse">
      <stop stop-color="#09C6F9" />
      <stop offset="1" stop-color="#045DE9" />
    </linearGradient>
  </defs>
</svg>