<svg width="600" height="300" viewBox="0 0 26148 15135" fill="none" xmlns="http://www.w3.org/2000/svg">
  <path
    d="M23261.9 5473.54C22546.2 6296.75 21342.5 6786.12 20084.7 6786.65C18040.9 6787.5 16222.9 5434.69 16222.2 3663.45C16221.5 2202.35 17142.3 1154.11 18410 671.225C18758.6 539.053 19126.9 449.866 19504 406.257C19695.6 383.783 19888.7 372.505 20081.8 372.467C20575.9 372.261 21065.2 456.579 21521.8 620.586C22874.7 1105.01 23859.5 2247.46 23928.5 3577.98C23966.9 4314.97 23709.5 4959.37 23261.9 5473.54Z"
    fill="#657285" />
  <path
    d="M17954.9 3861.98C17954.9 3861.98 18099.5 4151.41 17955.1 4310.49C17811.2 4469.61 17798.3 4770.43 18086.8 4968.98C18374.9 5167.48 18499.1 5184.56 18433.7 5383.26C18368.3 5581.95 18300.1 5824.72 18408 5926.83C18515.9 6028.98 18560.3 6271.71 18801.1 6289.45C19041.9 6307.23 18781.8 6123.34 18938.7 5952.89C19096.1 5782.48 19704.7 5748.26 19645.8 5411.91C19586.9 5075.56 20147 5045.46 20225.4 4823.99C20304.3 4602.52 19970 4466.54 19689.7 4483.62C19409 4500.74 19581.2 4121.76 19276.9 4066.44C18972 4011.17 18829.4 3798.48 18652.6 3824.08C18475.9 3849.69 18279.4 3632.55 18077.6 3700.86C17876.3 3769.13 17954.9 3861.98 17954.9 3861.98Z"
    fill="#B8C1C9" />
  <path
    d="M17442.9 1545.8C17442.9 1545.8 17233.5 1687.77 17175.3 1914.91C17117.2 2142.01 16821.6 2284.07 16775.9 2597.1C16730.3 2910.1 16938.4 2917.7 16864.8 3088.11C16791.2 3258.48 16882.7 3343.64 17107.1 3428.73C17331.6 3513.83 17351.4 3644.68 17483.8 3687.74C17616.8 3730.8 17582.1 3845.71 17626.5 3858.48C17670.8 3871.25 17651 3771.4 17697.2 3640.77C17742.8 3510.15 17781.8 3456.15 17615.2 3461.9C17448.1 3467.61 17500.1 3351.23 17565.5 3277.46C17631 3203.74 17474 3192.35 17421.5 3203.7C17369 3215 17382.6 3425.15 17274.2 3325.76C17165.8 3226.41 17113.7 3112.95 17201.8 2982.31C17290.4 2851.71 17480.1 2959.59 17614.9 2803.36C17749.2 2647.17 17939 2709.51 17949.6 2834.43C17960.3 2959.39 18228 2962.04 18273.7 2797.44C18319.8 2632.85 18300 2346 18574.9 2299.17C18850.4 2252.3 19391 2013.51 19046.7 1915.72C18702.8 1817.93 18840 1613.4 18663.2 1625.67C18486.5 1637.91 18555.5 1868.46 18358.5 1799.9C18162 1731.38 18019.3 1548.86 18294.8 1497.69C18570.2 1446.48 18682.8 1182.5 18471.4 1199.55C18260 1216.6 18225.7 1037.84 18098.1 1059.24C17970 1080.64 17837.7 1349.56 17705.3 1416.96C17572.4 1484.33 17442.9 1545.8 17442.9 1545.8Z"
    fill="#B8C1C9" />
  <path
    d="M19214.8 1019.88C19214.8 1019.88 19486.9 954.466 19604.9 1019.72C19722.9 1084.97 19906.5 1269.36 19752.4 1337.61C19598.3 1405.86 19437.5 1428.57 19513.2 1556.22C19588.3 1683.91 19297 1726.69 19215.1 1556.34C19133.1 1386.04 19133.1 1324.2 19047.8 1244.15C18962.1 1164.09 18998.6 994.445 19214.8 1019.88Z"
    fill="#B8C1C9" />
  <path
    d="M23261.9 5473.54C22137.3 5218.31 23069.9 4816.7 22675.3 4355.11C22450.8 4092.28 22850.4 3775.46 22594.6 3732.03C22446.3 3706.86 22105 4035.39 21908.4 3732.32C21711.3 3429.28 21359.8 3427.84 21257.3 3611.3C21155.3 3794.76 20723.9 3922.03 20440.7 3789.12C20157.9 3656.17 20321.6 3478.62 20076.4 3339.42C19831.7 3200.19 19813.3 2978.47 20076.2 2807.31C20339.5 2636.11 20218.5 2389.03 20613.4 2464.9C21008.3 2540.78 20931.4 1751.99 20931.4 1751.99C20925.1 1614 21079.2 1590.28 20991.5 1461.72C20903.8 1333.2 20656.8 1438.09 20525.2 1152.99C20393.6 867.893 20733.5 696.66 21007.5 724.414C21087.5 732.528 21281.5 683.982 21522.3 620.458C22875.7 1104.84 23860.5 2247.34 23929.5 3577.81C23966.9 4314.97 23709.5 4959.37 23261.9 5473.54Z"
    fill="#B8C1C9" />
  <path
    d="M18035 3210.38C18035 3210.38 18261.8 3100.74 18382.2 3187.76C18503.1 3274.78 18555.2 3332.79 18732.8 3299.75C18911 3266.75 19031.9 3328.66 18917.3 3374.29C18802.7 3419.88 18532.1 3498.96 18408.8 3404.38C18285 3309.84 17928.6 3248.61 18035 3210.38Z"
    fill="#B8C1C9" />
  <path
    d="M18948.7 3563.63C18948.7 3563.63 19109.5 3588.38 19147.1 3531.04C19184.1 3473.71 19109.5 3528.59 19047.9 3498.75C18986.2 3468.86 18868.2 3498.82 18948.7 3563.63Z"
    fill="#B8C1C9" />
  <path
    d="M13155.8 15134.7C20153.8 15131.8 25826.9 14634.6 25826.6 14024.1C25826.3 13413.7 20152.9 12921.2 13154.9 12924.1C6156.76 12927 483.838 13424.2 484.108 14034.7C484.378 14645.1 6157.74 15137.6 13155.8 15134.7Z"
    fill="#EAEAEA" />
  <g opacity="0.6">
    <path
      d="M19463.9 8878.69C20912.8 7594 22946.3 6076.61 23831.7 6756.09C24898.7 7575.38 22308.8 8607.72 20361.4 9664.66C19662.8 10043.9 18540.2 9697.51 19463.9 8878.69Z"
      fill="#D5D6DA" />
  </g>
  <path
    d="M17672.7 9413.3C17672.7 9413.3 25070.8 6928.84 26048.3 8911.79C27025.7 10894.7 20514.9 9505.41 18396.9 10295L17672.7 9413.3Z"
    fill="#B8C1C9" />
  <path
    d="M18073.1 9908.98C19523.8 9340.71 21313.7 9160.31 22559.9 9108.98C23910.7 9053.44 24930.2 9133.56 24940.3 9134.27L24946.1 9079.41C24936.4 9078.54 23912.1 8998.16 22557 9053.83C21305.5 9105.33 19506.9 9287.28 18046.6 9858.61L18073.1 9908.98Z"
    fill="white" />
  <path
    d="M22758.8 13497.1C21830.2 13137.3 21072.3 14273.5 20324.1 13497.2C19692 12840.3 19679.4 12737.1 19248.4 12759.8C19100.6 12768.1 18955.2 12794.7 18816 12838.6C18648.9 12890.3 18366.8 12943.3 18101.9 12829.6C16484 12135.3 16081 9051.31 18434.4 8990.71C18604.4 8986.29 18785.9 9058.16 18979.1 9145.32C20031 9618.38 20007.2 10181.1 21567.7 9690.27C23128.2 9199.45 22965.9 11224.2 23640.2 11578.5C24314.1 11932.7 25011.9 12123.8 25012.3 13018.4C25012.7 13913 23687.4 13857.4 22758.8 13497.1Z"
    fill="#D5D6DA" />
  <g opacity="0.5">
    <path
      d="M17758.5 10617.7L17760.9 10559.6C17790.3 10560.6 20758.2 10694.2 24985.9 13255.7L24947.4 13303.2C20736 10751.4 17787.4 10618.7 17758.5 10617.7Z"
      fill="white" />
    <path
      d="M21523 10872.8C21337.2 10096.3 21528.2 9695.38 21536.9 9678.67L21598 9701.45C21596.6 9705.34 21407.5 10104.3 21588.5 10861L21523 10872.8Z"
      fill="white" />
    <path
      d="M21190.5 11437.4C21236.1 11103.7 21537.8 10774.4 22063.6 10484C22311 10348.6 22573.9 10234.6 22846.9 10143.6L22869.6 10198.2C22854.7 10202.8 21361.6 10677.7 21256.9 11444.4L21190.5 11437.4Z"
      fill="white" />
    <path
      d="M22353.2 12052.4C22328.1 11963.6 22319.4 11910.3 22318.5 11907.2L22385.4 11899.2C22387.3 11910.4 22581.9 13031 23703.7 13700.6L23665.7 13748.2C22761.1 13209.2 22446.8 12383.6 22353.2 12052.4Z"
      fill="white" />
    <path
      d="M21975.8 13476.5C21930.9 13074.8 22064.6 12787.5 22184.4 12617.1C22315.3 12431.6 22455.4 12342.4 22461.2 12338.6L22500.2 12386.1C22494.9 12389.4 21959.1 12736.2 22041.8 13471.2L21975.8 13476.5Z"
      fill="white" />
  </g>
  <path
    d="M5222.22 558.187C5222.22 558.187 5456.42 167.442 6049.05 216.078C6641.63 264.756 6571.3 656.436 6852.9 619.593C7134.55 582.751 7530.22 619.311 7615.03 863.942C7699.89 1108.57 8080.74 973.882 8095.04 1181.82C8109.39 1389.75 7657.7 1536.97 7135.37 1353.6C6613.04 1170.23 6359.36 1496.44 5625.44 1437.67C4891.52 1378.89 4800.56 1305.52 4366.26 1342.43C3931.96 1379.29 3942.2 1121.59 4139.71 950.706C4337.22 779.825 5137.57 794.741 5222.22 558.187Z"
    fill="#EAEAEA" />
  <g opacity="0.6">
    <path
      d="M8194.29 1842.45C8194.29 1842.45 8316.13 1639.26 8624.54 1664.54C8932.99 1689.81 8896.43 1893.67 9043.25 1874.48C9190.07 1855.24 9394.88 1874.33 9439.77 2001.7C9484.71 2129.11 9682.26 2059.67 9689.68 2167.17C9697.09 2274.71 9462.03 2351.85 9190.24 2256.5C8918.46 2161.1 8786.25 2330.95 8404.31 2300.36C8022.37 2269.73 7975.11 2231.6 7749.13 2250.71C7523.09 2269.81 7528.19 2135.73 7631.83 2046.57C7735.42 1957.45 8150.34 1965.97 8194.29 1842.45Z"
      fill="#EAEAEA" />
  </g>
  <path
    d="M4623.59 3155.34C4488.19 3292.52 4397.46 3296.03 4335.47 3250.05C4273.52 3204.08 4263.42 3125.87 4398.82 2988.82C4645.7 2738.87 4877.41 2701.29 4877.41 2701.29C4877.41 2701.29 4874.13 2901.55 4623.59 3155.34Z"
    fill="#D5D6DA" />
  <path
    d="M5055.55 4264.35C4978.43 4432.3 4894.07 4460.91 4818.22 4434.83C4742.36 4408.75 4703.66 4337.49 4780.59 4169.71C4920.78 3863.9 5126.02 3763.25 5126.02 3763.25C5126.02 3763.25 5197.76 3954.07 5055.55 4264.35Z"
    fill="#D5D6DA" />
  <path
    d="M6122.44 7167.73L6084.25 7176.02C6082.76 7170.93 5930.65 6656.88 5445.28 5982.62C4997.44 5360.4 4166.21 4470.49 2748.53 3763.53L2768.31 3734.48C4193.17 4444.95 5029.41 5339.79 5479.12 5965.6C5968.49 6644.37 6122.44 7162.51 6122.44 7167.73Z"
    fill="#D5D6DA" />
  <path
    d="M4276.49 4710.6L4238.16 4702.51C4575.2 3495.75 3657.5 2427.26 3648.11 2416.53L3679.59 2395.92C3688.94 2406.65 4618.05 3487.75 4276.49 4710.6Z"
    fill="#D5D6DA" />
  <path
    d="M3506.27 4354.83C3269.33 4422.78 3015.65 4434.37 2771.77 4388.35L2781.77 4355.42C2786.3 4356.42 3236.93 4456.8 3659.46 4259.59L3678.21 4289.62C3623.03 4315.34 3565.54 4337.17 3506.27 4354.83Z"
    fill="#D5D6DA" />
  <path
    d="M5770.48 6457.99C4974.39 6611.57 4224.68 6473.13 3542.37 6047.67C3525.8 6036.65 3508.5 6026.42 3490.63 6017.07C3492.13 6017.36 3493.67 6017.36 3495.11 6017.07L3495.1 5982.97C3506.85 5982.97 3516.58 5988.65 3565.81 6019.5C4238.73 6440.08 4977.74 6575.55 5762.28 6424.9L5770.48 6457.99Z"
    fill="#D5D6DA" />
  <path
    d="M4548.18 6434.14L4508.84 6436.46C4472.61 5973.42 3899.09 5448.23 3893.21 5443.01L3921.85 5419.35C4030.39 5521.62 4130.17 5630.67 4220.37 5745.57C4359.76 5921.66 4529.34 6185.14 4548.18 6434.14Z"
    fill="#D5D6DA" />
  <path
    d="M2653.33 3591.48C2911.93 3686.71 2963.01 3767.95 2931.06 3833.1C2899.11 3898.29 2797.18 3922.69 2537.58 3827.46C2066.34 3653.55 1896.46 3452.03 1896.46 3452.03C1896.46 3452.03 2175.07 3415.53 2653.33 3591.48Z"
    fill="#D5D6DA" />
  <path
    d="M2830.13 4253.54C3109.92 4276.78 3186.81 4340.46 3178.99 4411.28C3171.12 4482.1 3081.77 4532.07 2801.92 4508.79C2292.22 4466.51 2059.95 4318.45 2059.95 4318.45C2059.95 4318.45 2312.91 4210.22 2830.13 4253.54Z"
    fill="#D5D6DA" />
  <path
    d="M3963.16 5304.68C4113.9 5429.42 4112.77 5507.8 4056.36 5559.34C3999.94 5610.83 3909.36 5614.8 3758.63 5490.06C3484.23 5262.64 3453.71 5060.1 3453.71 5060.1C3453.71 5060.1 3684.57 5073.92 3963.16 5304.68Z"
    fill="#D5D6DA" />
  <path
    d="M3682.83 3725.29C3793.89 3878.03 3770.81 3954.08 3701.68 3991.84C3632.54 4029.59 3543.64 4014.84 3432.38 3861.34C3230 3582.96 3257.36 3380.06 3257.36 3380.06C3257.36 3380.06 3477.41 3442.81 3682.83 3725.29Z"
    fill="#D5D6DA" />
  <path
    d="M4973.84 6115.43C5031.03 6289.54 4984.35 6356.62 4905.62 6376.67C4826.94 6396.71 4746.41 6360.19 4689.41 6186.36C4585.45 5869.92 4677.44 5681.83 4677.44 5681.83C4677.44 5681.83 4868.38 5794.35 4973.84 6115.43Z"
    fill="#D5D6DA" />
  <path
    d="M3699.23 5968.68C3877.26 6062.66 3895.88 6139.52 3853.39 6200.08C3810.89 6260.6 3723.5 6281.69 3545.47 6187.72C3221.07 6016.47 3141.28 5825.11 3141.28 5825.11C3141.28 5825.11 3370.3 5795.14 3699.23 5968.68Z"
    fill="#D5D6DA" />
  <path
    d="M3706.1 2241.49C3856.92 2446.9 3846.22 2538.9 3777.42 2576.95C3708.62 2615 3607.63 2584.71 3456.71 2379.3C3181.43 2005.06 3173.09 1755.47 3173.09 1755.47C3173.09 1755.47 3427.01 1861.86 3706.1 2241.49Z"
    fill="#D5D6DA" />
  <path
    d="M9155.05 11632.3C9155.05 11632.3 5136.31 5897.98 3381.86 6901.56C1627.36 7905.15 7056.95 10226.8 8165.77 11928.3L9155.05 11632.3Z"
    fill="#D5D6DA" />
  <path
    d="M7285.66 10609.8C7285.66 10609.8 2661.45 6362.64 1076.02 7572.81C-509.458 8782.97 5068.73 9780.29 6358.57 11056.3L7285.66 10609.8Z"
    fill="#EAEAEA" />
  <path
    d="M6769.56 10863.6C5896.62 9968.33 4600.53 9263.2 3666.84 8829.24C2654.64 8358.96 1839.1 8097.5 1830.91 8094.88L1849.63 8051.33C1857.81 8053.96 2676.86 8316.55 3691.77 8788.49C4629.65 9224.29 5931.95 9932.76 6810.23 10833.2L6769.56 10863.6Z"
    fill="white" />
  <path
    d="M1762.59 12261.8C2802.93 12436.6 2664.55 13798.4 3838.37 13524.2C5012.15 13250.1 4912.82 13185.8 5491.36 13619.5C5491.36 13619.5 5723.13 14044.7 6194.85 14107.3C8053.48 14354.3 10526.7 11933.3 8562.26 10661.7C8420.35 10569.9 8216.39 10537.3 7990.87 10511C6767.16 10368.9 6399.18 10861.3 5407.54 9633.75C4415.95 8406.23 3155.94 10216.4 2336.64 10168.9C1517.35 10121.4 791.066 9922.83 172.553 10685.4C-445.961 11447.9 722.006 12087.6 1762.59 12261.8Z"
    fill="#B8C1C9" />
  <path
    d="M8014.48 12399.5L8052.11 12348.7C8026.34 12334.2 5403.24 10909.1 30.2979 10900.9L30.3246 10961.4C5383.04 10969.5 7988.66 12385.1 8014.48 12399.5Z"
    fill="white" />
  <path
    d="M4628.4 10665.1C5322.85 10098.9 5436.69 9658.26 5441.21 9639.83L5372.87 9627.24C5371.91 9631.59 5257.39 10069.7 4580.52 10621L4628.4 10665.1Z"
    fill="white" />
  <path
    d="M4521.88 11318.9C4713.3 11011.1 4683.64 10573.5 4435.94 10053.3C4318.28 9809.35 4173.18 9576.1 4002.76 9356.87L3945.85 9391.57C3955.39 9403.35 4900.78 10582.7 4460.56 11290.3L4521.88 11318.9Z"
    fill="white" />
  <path
    d="M3105.97 11240.5C3188.68 11177.8 3233.35 11137.1 3235.37 11135.2L3185.12 11094.1C3175.74 11102.6 2235.97 11956.7 817.244 11946.4L817.27 12006.8C1959.19 12015.1 2797.5 11474.3 3105.97 11240.5Z"
    fill="white" />
  <path
    d="M2444.4 12650.1C2760.02 12330.7 2844.63 12016.8 2859.95 11809.3C2876.56 11583.4 2818.42 11434.5 2816.06 11428.3L2750.09 11448C2752.26 11453.7 2969.55 12026.9 2391.46 12610.8L2444.4 12650.1Z"
    fill="white" />
  <path
    d="M15669.8 12406.3L15669 10551.8L11352.7 10553.6L11353.6 12408.1C11353.8 12890 10983.9 13280.8 10527.4 13281L10353.5 13281.1L10353.6 13520.5L16671 13517.9L16670.9 13278.5L16497 13278.5C16040.5 13278.7 15670 12888.2 15669.8 12406.3Z"
    fill="#00A3FE" />
  <path
    d="M16635.4 13517.9L10388.9 13520.5C10352.3 13520.5 10317.2 13507.9 10291.2 13485.5C10265.3 13463 10250.7 13432.6 10250.7 13400.8C10250.7 13369.1 10265.3 13338.6 10291.2 13316.2C10317.1 13293.7 10352.2 13281.1 10388.8 13281.1L16635.3 13278.5C16672.3 13278.5 16707 13291.1 16733 13313.5C16759 13335.9 16773.5 13366.4 16773.5 13398.1C16773.5 13429.9 16759.1 13460.3 16733.1 13482.8C16707.1 13505.3 16672.4 13517.9 16635.4 13517.9Z"
    fill="#016EB9" />
  <path
    d="M20863.6 11688.2L6267.54 11549.1C6117.39 11547.7 5973.96 11495 5868.36 11402.5C5762.77 11310 5703.48 11185.1 5703.37 11055L5699.96 3334.22C5699.95 3204.4 5758.79 3079.83 5863.87 2987.29C5968.91 2894.78 6111.76 2841.79 6261.53 2839.76L20669.4 2642.49C20820.1 2640.42 20965.6 2690.2 21074.4 2780.95C21182.8 2871.65 21245.5 2995.96 21248.4 3126.61L21440.3 11183.5C21441.7 11249.7 21428.3 11315.6 21399.9 11377.1C21371.5 11438.6 21329.2 11494.6 21275.3 11541.6C21221.3 11588.7 21157.3 11626 21086.5 11651.1C21016.2 11676.3 20940.2 11688.9 20863.6 11688.2Z"
    fill="#016EB9" />
  <path
    d="M20365.9 3420.4L6571.52 3426.15C6402.59 3426.22 6265.69 3544.98 6265.75 3691.42L6268.5 9897.95C6268.56 10044.3 6405.57 10163 6574.5 10162.9L20368.8 10157.2C20537.4 10157.1 20674.6 10038.3 20674.5 9891.94L20671.8 3685.41C20671.7 3538.97 20534.4 3420.33 20365.9 3420.4Z"
    fill="#EAEAEA" />
  <path
    d="M14972.4 1317.24L15153.5 1312.95C15170.4 1312.57 15186.2 1309.38 15201.6 1303.57C15216.6 1297.72 15230.1 1289.4 15241.6 1278.99C15252.7 1268.62 15261.8 1256.42 15267.6 1243.05C15273.4 1229.71 15276.3 1215.47 15275.8 1201.18L15269.9 1009.91C15268.9 981.081 15254.9 953.721 15230.9 933.843C15206.3 914.008 15174 903.283 15140.8 904.049L15012.7 907.153C14985.7 907.749 14959.2 900.824 14937.1 887.38C14914.9 873.978 14898.6 854.766 14889.9 832.626C14886.5 823.895 14883.1 815.206 14879.3 806.643C14870.6 786.048 14869.6 763.696 14875.9 742.469C14882.1 721.284 14896.1 702.268 14914.9 687.93L15002.5 621.42C15027.5 602.358 15042.9 575.487 15045.3 546.615C15047.2 517.786 15036.1 489.38 15014.4 467.621L14868.9 323.874C14857.9 313.099 14844.9 304.289 14829.9 297.944C14815 291.6 14799.1 287.846 14782.7 286.892C14766.3 285.938 14749.5 287.825 14734.1 292.427C14718.7 296.988 14704.2 304.222 14691.7 313.627L14603.6 380.137C14584.9 394.601 14561.3 403.719 14536.2 406.32C14511.2 408.921 14485.7 404.878 14463.5 394.693C14454.3 390.477 14444.7 386.303 14435.1 382.38C14411 372.196 14391.3 355.492 14378.7 334.732C14366.2 313.972 14361.8 290.284 14366.2 267.178L14386.3 157.329C14391.6 128.832 14383.9 99.6727 14364.2 76.2838C14344.4 52.895 14315 37.1561 14282.3 32.5739L14064.6 2.20646C14031.8 -2.33397 13998.1 4.61587 13971.2 21.5482C13944.2 38.4805 13925.9 64.0159 13920.7 92.5124L13891.8 247.948C13888 268.338 13877.4 287.353 13861.5 302.776C13845.6 318.2 13824.9 329.364 13801.8 335.056C13761.8 344.974 13722.8 357.358 13684.8 372.08C13660.3 381.825 13632.3 384.469 13605.8 379.592C13579.3 374.714 13555.7 362.608 13537.4 345.026L13443.5 251.895C13432.4 241.12 13419.4 232.31 13404.5 225.965C13390 219.621 13373.7 215.867 13357.3 214.913C13340.9 213.959 13324.5 215.846 13308.6 220.448C13293.2 225.009 13278.8 232.243 13266.3 241.691L13100.2 367.686C13075.2 386.749 13059.8 413.62 13057.9 442.449C13055.5 471.278 13066.5 499.643 13088.7 521.359L13214.9 646.69C13231.3 662.267 13241.4 681.482 13245.3 702.037C13249.2 722.633 13245.8 743.691 13236.2 762.789C13231.4 772.066 13227 781.511 13222.7 790.913C13213.6 810.637 13197.7 827.607 13177.9 839.731C13157.7 851.814 13134.1 858.551 13109.6 859.021L12904.4 863.785C12871.2 864.593 12839.9 876.806 12816.8 897.831C12793.7 918.815 12781.7 946.813 12782.6 975.683L12788.5 1166.95C12789.5 1195.82 12803.5 1223.14 12827.5 1243.02C12851.6 1262.85 12883.9 1273.58 12917.1 1272.81L13093.4 1268.68C13119.9 1268.09 13145.4 1274.68 13167.5 1287.5C13189.2 1300.31 13205.6 1318.77 13214.8 1340.16L13214.8 1341.62C13223.4 1362.26 13224.9 1384.7 13218.6 1406.01C13212.4 1427.32 13198.9 1446.46 13179.7 1460.92L13055.5 1555.31C13042.9 1564.72 13032.8 1576.21 13025.6 1589.04C13017.9 1601.87 13013.6 1615.83 13012.6 1630.12C13011.7 1644.41 13013.6 1658.74 13018.9 1672.27C13024.2 1685.85 13032.9 1698.38 13043.5 1709.11L13189 1853.03C13200.1 1863.76 13213.1 1872.57 13228 1878.92C13242.9 1885.22 13258.8 1888.97 13275.7 1889.93C13292 1890.84 13308.4 1888.95 13323.8 1884.35C13339.7 1879.75 13354.2 1872.51 13366.7 1863.11L13490.9 1768.72C13509.7 1754.17 13533.2 1745.01 13558.8 1742.41C13583.8 1739.81 13609.3 1743.89 13632 1754.16L13633.4 1755.04C13657 1765.6 13675.8 1782.22 13687.4 1802.6C13699.4 1822.98 13703.8 1846.09 13699.4 1868.61L13671.6 2019.11C13669.2 2033.24 13669.7 2047.69 13673.5 2061.6C13677.4 2075.56 13684.1 2088.71 13693.8 2100.28C13703.4 2111.9 13715.9 2121.75 13729.9 2129.22C13743.9 2136.74 13759.8 2141.74 13775.6 2143.99L13993.3 2174.24C14026.6 2178.78 14060.3 2171.83 14087.2 2154.89C14114.2 2137.96 14132 2112.43 14137.8 2083.93L14169.9 1908.61C14173.8 1887.67 14184.4 1868.11 14201.2 1852.44C14217.6 1836.72 14238.8 1825.6 14262.8 1820.37C14273.9 1817.9 14285.5 1815.26 14296.1 1812.37C14319.2 1806.6 14343.7 1806.71 14366.4 1812.6C14389.5 1818.52 14409.7 1830 14425.6 1845.66L14552.3 1970.99C14562.9 1981.77 14576.4 1990.58 14590.9 1996.88C14605.8 2003.22 14622.2 2006.98 14638.5 2007.89C14654.9 2008.84 14671.3 2006.96 14687.2 2002.35C14702.6 1997.75 14717 1990.52 14729.5 1981.07L14895.6 1855.08C14908.1 1845.63 14918.2 1834.18 14925.5 1821.35C14933.2 1808.52 14937 1794.6 14938.4 1780.31C14939.4 1766.02 14937.5 1751.73 14931.7 1738.16C14926.4 1724.62 14918.2 1712.13 14907.6 1701.36L14813.2 1608.1C14795.3 1590.44 14784.7 1568.26 14782.8 1544.86C14780.4 1521.46 14787.1 1498.15 14801.5 1478.25C14823.2 1447.75 14842.5 1415.98 14858.8 1383.18C14868.4 1363.91 14884.3 1347.45 14904.5 1335.74C14924.8 1324.07 14948.4 1317.63 14972.4 1317.24ZM14373.4 1406.74C14180.9 1553.22 13786.4 1511.77 13617.3 1344.67C13448.7 1177.54 13516 894.866 13708.6 749.682C13901.6 604.456 14230.6 681.53 14399.2 848.623C14568.3 1015.72 14566.5 1260.26 14373.4 1406.61L14373.4 1406.74Z"
    fill="#00A3FE" />
  <path
    d="M14034.3 2295.68C14027.6 2295.72 14020.3 2295.22 14013.6 2294.22L13795.9 2263.98C13779.1 2261.73 13763.2 2256.56 13748.7 2248.87C13734.3 2241.15 13721.3 2231.05 13711.6 2219.1C13701.5 2207.16 13694.3 2193.62 13690.4 2179.25C13686.6 2164.92 13686.1 2150.05 13688.5 2135.47L13716.3 1985C13720.7 1963.11 13716.8 1940.67 13705.2 1920.87C13693.7 1901.08 13675.4 1884.87 13652.7 1874.56L13650.8 1874.56C13629.1 1864.75 13604.6 1860.88 13580 1863.48C13555.4 1866.08 13532.3 1875.03 13514 1889.16L13389.8 1983.51C13376.8 1993.25 13362.4 2000.69 13346 2005.42C13330.1 2010.15 13312.8 2012.08 13295.9 2011.12C13279.1 2010.17 13262.2 2006.33 13247.3 1999.82C13231.9 1993.27 13218.4 1984.25 13207.3 1973.14L13061.8 1829.1C13050.3 1818.03 13041.6 1805.17 13036.3 1791.22C13031 1777.22 13028.6 1762.47 13029.5 1747.77C13031 1733.06 13035.3 1718.69 13043 1705.48C13050.2 1692.27 13060.8 1680.49 13073.8 1670.79L13198 1576.44C13216.3 1562.23 13229.8 1543.54 13235.5 1522.86C13241.3 1502.14 13240.3 1480.33 13231.7 1460.32L13231.7 1458.85C13223 1438.14 13207.1 1420.26 13185.9 1407.82C13164.7 1395.38 13139.6 1388.99 13114.1 1389.55L12938.4 1393.67C12904.2 1394.44 12870.9 1383.38 12845.9 1362.88C12820.8 1342.42 12806.4 1314.22 12805.4 1284.47L12799.5 1093.2C12798.6 1063.5 12811.5 1034.71 12835.1 1013.14C12858.7 991.528 12891 978.939 12925.7 978.089L13130.3 973.24C13153.9 972.813 13177 966.327 13196.3 954.579C13216 942.872 13230.9 926.405 13240.1 907.307C13244.4 897.738 13248.7 888.293 13253.6 879.016C13262.7 860.545 13266.1 840.197 13262.2 820.353C13258.8 800.467 13248.7 781.92 13233.3 766.844L13106.6 641.513C13083.9 619.128 13072.4 589.887 13074.8 560.222C13077.1 530.515 13093 502.808 13118.5 483.202L13284.6 357.165C13297.1 347.425 13312.1 339.982 13328.4 335.254C13344.3 330.526 13361.2 328.597 13378.5 329.551C13395.4 330.546 13411.7 334.425 13427.2 340.937C13442.6 347.49 13456.1 356.592 13467.1 367.701L13561.1 460.791C13578.4 477.913 13602 489.727 13627.6 494.438C13653.6 499.19 13680 496.547 13704.1 487.011C13742.2 472.289 13781.2 459.822 13821.1 449.82C13843.7 444.253 13863.5 433.34 13878.9 418.335C13894.8 403.329 13904.9 384.858 13908.7 365.052L13937.6 209.617C13942.8 180.243 13961.6 153.955 13989.5 136.521C14017 119.087 14051.6 111.97 14085.8 116.677L14303.5 146.919C14337.2 151.668 14367.6 167.908 14387.8 192.007C14408 216.148 14416.2 246.184 14411 275.6L14390.3 385.282C14386 407.72 14390.3 430.739 14402.4 450.914C14414.4 471.089 14433.7 487.292 14457.3 497.142C14466.9 501.066 14476.5 505.282 14485.7 509.456C14507.4 519.223 14531.9 523.057 14556.5 520.456C14580.6 517.856 14603.7 508.947 14622 494.901L14709.6 428.392C14735.6 408.828 14769.3 398.954 14803.5 400.903C14837.7 402.894 14869.5 416.543 14892.1 438.928L15037.6 582.676C15048.7 593.743 15057.4 606.608 15063.1 620.56C15068.4 634.513 15070.9 649.26 15069.4 663.968C15068.5 678.675 15064.1 693.049 15056.4 706.255C15048.7 719.46 15038.6 731.289 15025.6 740.987L14938 807.622C14919.7 821.542 14906.2 840.015 14900 860.532C14894.2 881.09 14895.2 902.774 14903.4 922.699C14907.2 931.43 14910.6 940.119 14914 948.808C14922.2 970.447 14938.1 989.199 14959.8 1002.27C14981 1015.34 15007 1022.05 15033 1021.33L15161.6 1018.23C15195.7 1017.46 15229 1028.52 15254 1048.98C15278.6 1069.4 15293.1 1097.6 15294 1127.3L15300.4 1318.57C15301.3 1348.28 15288.4 1377.07 15264.8 1398.64C15241.2 1420.25 15208.9 1432.84 15174.7 1433.69L14993.2 1438.11C14969.6 1438.74 14947.4 1445.1 14928.2 1456.39C14908.9 1467.72 14893.5 1483.52 14884.4 1501.99C14867.5 1535.05 14848.3 1567.02 14826.6 1597.65C14812.7 1616.92 14805.9 1639.57 14808.4 1662.25C14810.3 1684.94 14820.4 1706.45 14837.8 1723.62L14932.2 1816.87C14943.3 1827.94 14952 1840.85 14957.3 1854.8C14962.6 1868.75 14965 1883.5 14964 1898.17C14962.6 1912.87 14958.3 1927.25 14951 1940.45C14943.3 1953.7 14932.7 1965.49 14920.2 1975.18L14753.2 2100.93C14740.7 2110.67 14725.7 2118.11 14709.4 2122.84C14693.5 2127.57 14676.6 2129.5 14659.3 2128.54C14642.4 2127.55 14626.1 2123.67 14610.6 2117.16C14595.2 2110.6 14581.8 2101.5 14570.7 2090.39L14444 1965.11C14429 1949.95 14408.8 1938.84 14386.6 1933.12C14364.5 1927.41 14340.9 1927.29 14318.3 1932.78C14307.2 1935.71 14295.6 1938.47 14285 1940.94C14261.9 1945.96 14241.2 1956.75 14225.3 1971.96C14209 1987.18 14198.9 2006.11 14195 2026.42L14162.8 2201.74C14157.6 2228.07 14142.2 2251.97 14118.6 2269.19C14095 2286.37 14065.1 2295.79 14034.3 2295.68ZM13594.4 1854.74C13615.2 1854.69 13635.9 1859.07 13654.2 1867.46L13656.1 1868.21C13679.7 1879.23 13699 1896.44 13711 1917.49C13723.1 1938.5 13727.4 1962.27 13723.1 1985.42L13695.2 2135.92C13689.9 2163.5 13697.6 2191.74 13716.4 2214.46C13735.2 2237.14 13763.6 2252.46 13795.4 2257.04L14013.1 2287.12C14044.9 2291.53 14077.6 2284.88 14103.6 2268.53C14130.1 2252.23 14147.4 2227.57 14152.7 2199.99L14185.4 2024.71C14189.2 2003.06 14200.3 1982.96 14217.2 1966.79C14234 1950.61 14256.1 1939.15 14280.7 1933.8C14291.8 1931.33 14303.3 1928.73 14314.4 1925.8C14338 1919.86 14363.5 1919.93 14387.1 1926.02C14410.7 1932.07 14431.9 1943.93 14448.3 1960.17L14575 2085.46C14585.6 2095.9 14598.1 2104.46 14612.6 2110.6C14627 2116.73 14642.4 2120.36 14658.3 2121.27C14674.7 2122.19 14690.6 2120.38 14705.5 2115.91C14720.9 2111.43 14734.9 2104.45 14746.9 2095.29L14913 1969.25C14937.1 1950.82 14952 1924.74 14954.4 1896.79C14956.3 1868.84 14945.7 1841.31 14924.5 1820.22L14830.1 1726.96C14811.8 1708.75 14800.7 1685.9 14798.3 1661.8C14796.3 1637.69 14803.1 1613.62 14818 1593.14C14839.6 1562.76 14858.9 1531.08 14875.2 1498.36C14885.3 1478.76 14901.2 1462 14921.4 1449.96C14942.1 1437.96 14966.2 1431.23 14990.8 1430.55L15171.8 1426.13C15204.1 1425.32 15234.9 1413.44 15257.1 1393.13C15279.2 1372.81 15291.2 1345.69 15290.3 1317.7L15284.4 1126.6C15283.4 1098.56 15269.9 1072 15246.3 1052.74C15223.2 1033.45 15191.9 1023.02 15159.6 1023.74L15031 1026.85C15003.1 1027.53 14976.1 1020.44 14953 1006.62C14930.4 992.796 14913.5 972.999 14904.8 950.149C14901.5 941.418 14898.1 932.854 14894.2 924.333C14885.6 903.112 14884.1 880.091 14890.8 858.237C14897.1 836.384 14911 816.783 14930.8 801.984L15018.4 735.475C15030.4 726.32 15040.5 715.202 15047.3 702.749C15054.5 690.295 15058.8 676.757 15059.8 662.927C15060.7 649.056 15058.8 635.143 15053.5 622.026C15048.7 608.868 15040.5 596.713 15029.9 586.314L14884.4 442.399C14863.2 421.434 14832.9 408.62 14800.6 406.754C14768.3 404.929 14736.5 414.217 14712.5 432.611L14624.9 499.12C14605.1 514.002 14581 523.413 14555 526.139C14529.5 528.866 14503 524.782 14479.9 514.388C14470.8 510.214 14461.6 505.998 14452 502.075C14426.9 491.64 14406.2 474.435 14393.7 453.049C14380.7 431.663 14376.3 407.223 14380.7 383.406L14401.3 273.682C14406.1 246.105 14398.4 217.823 14379.6 195.144C14360.8 172.423 14332.4 157.101 14300.6 152.561L14082.9 122.193C14051.2 117.819 14018.4 124.476 13992.4 140.823C13966.4 157.128 13948.6 181.745 13943.3 209.322L13914.5 364.757C13910.2 385.816 13899.6 405.458 13883.2 421.425C13866.9 437.35 13845.2 448.974 13821.6 454.875C13782.1 464.793 13743.1 477.135 13705.6 491.815C13680 501.853 13651.6 504.581 13624.7 499.495C13597.2 494.451 13572.6 481.885 13553.9 463.718L13459.9 370.587C13449.3 360.146 13436.8 351.628 13422.3 345.451C13407.9 339.315 13392.5 335.687 13376.1 334.774C13360.2 333.862 13344.3 335.707 13329.4 340.142C13314 344.619 13300 351.644 13288 360.799L13121.9 486.836C13097.8 505.271 13082.9 531.348 13081 559.3C13078.6 587.211 13089.2 614.739 13110.4 635.872L13237.1 761.16C13253.5 777.197 13264.1 796.871 13268 817.969C13271.8 839.066 13269 860.71 13258.8 880.309C13254.5 889.461 13249.7 898.864 13245.4 908.308C13236.2 928.742 13219.9 946.297 13199.2 958.756C13178 971.257 13153.4 978.119 13128.4 978.464L12923.2 983.312C12907.4 983.695 12891.5 986.793 12877 992.44C12862.6 998.086 12849.1 1006.16 12838 1016.23C12827.4 1026.3 12818.8 1038.17 12813 1051.13C12807.2 1064.08 12804.3 1077.91 12804.8 1091.78L12810.7 1283.01C12811.7 1311.04 12825.7 1337.61 12848.8 1356.86C12872.4 1376.15 12903.7 1386.59 12935.9 1385.86L13112.2 1381.74C13139.2 1381.06 13165.7 1387.81 13188.3 1401.01C13210.4 1414.2 13227.8 1433.16 13237 1455.26L13237 1456.39C13246.1 1477.69 13247.6 1500.88 13240.8 1522.86C13234.6 1544.84 13220.6 1564.65 13200.9 1579.61L13076.2 1674.01C13064.2 1683.12 13054.5 1694.24 13047.3 1706.69C13040.1 1719.14 13036.3 1732.68 13035.3 1746.55C13033.9 1760.38 13036.3 1774.29 13041.1 1787.45C13046.4 1800.61 13054.6 1812.73 13065.2 1823.17L13210.7 1967.04C13221.3 1977.52 13233.8 1986.04 13248.3 1992.18C13262.7 1998.35 13278.6 2001.98 13294.5 2002.89C13310.4 2003.81 13326.3 2001.96 13341.7 1997.48C13356.6 1993.01 13370.6 1986.02 13382.6 1976.87L13506.8 1882.48C13530.9 1864.21 13562.2 1854.29 13594.4 1854.74Z"
    fill="#131F2D" />
  <g opacity="0.6">
    <path
      d="M19340.5 4219.67L7581.56 4224.57C7413.4 4224.64 7277.17 4342.81 7277.23 4488.5L7278 6221.72C7278.06 6367.41 7414.4 6485.46 7582.56 6485.39L19341.5 6480.49C19509.6 6480.42 19645.8 6362.25 19645.7 6216.57L19645 4483.34C19644.9 4337.66 19508.6 4219.6 19340.5 4219.67Z"
      fill="#D5D6DA" />
  </g>
  <g opacity="0.6">
    <path
      d="M19461.2 7170.45L13783.2 7172.82C13771.6 7172.82 13760 7170.86 13749.4 7167.02C13738.9 7163.18 13729.2 7157.55 13721 7150.49C13712.8 7143.39 13706.1 7134.95 13701.8 7125.72C13697.4 7116.45 13695 7106.55 13695 7096.52L13695 7051.52C13695 7041.45 13697.4 7031.46 13701.7 7022.19C13706.5 7012.87 13712.8 7004.43 13721 6997.36C13729.6 6990.26 13739.3 6984.61 13749.8 6980.81C13760.9 6977 13772 6975.11 13784 6975.15L19462.1 7018.2C19485.2 7018.4 19507.4 7026.5 19523.8 7040.74C19540.1 7055.02 19549.3 7074.28 19549.3 7094.37C19549.3 7114.55 19540.2 7133.9 19523.3 7148.15C19507 7162.41 19484.8 7170.44 19461.2 7170.45Z"
      fill="#D5D6DA" />
  </g>
  <path d="M19035.6 5261.39L15225.5 5262.97L15225.5 5137.76L19035.6 5165.46L19035.6 5261.39Z" fill="#657285" />
  <path d="M16927.5 5544.07L15225.7 5544.78L15225.6 5419.56L16927.5 5448.31L16927.5 5544.07Z" fill="#00A3FE" />
  <path d="M17480.1 6153.63L15225.9 6154.57L15225.9 6029.18L17480.1 6057.7L17480.1 6153.63Z" fill="#00A3FE" />
  <path d="M16927.6 5871.17L15225.8 5871.88L15225.8 5746.62L16927.6 5775.37L16927.6 5871.17Z" fill="#5C305D" />
  <path d="M18168.6 5870.65L17171.3 5871.07L17171.3 5745.81L18168.6 5774.85L18168.6 5870.65Z" fill="#657285" />
  <path d="M18872.5 5543.26L17171.2 5543.97L17171.1 5418.75L18872.5 5447.5L18872.5 5543.26Z" fill="#00A3FE" />
  <g opacity="0.6">
    <path
      d="M19470.1 7609.1L13777.1 7669.55C13766.5 7669.63 13755.9 7667.93 13745.8 7664.46C13736.2 7661.04 13727 7655.9 13719.8 7649.43C13712.1 7642.92 13705.8 7635.19 13702 7626.67C13697.6 7618.15 13695.7 7609 13695.7 7599.76L13695.7 7541.73C13695.7 7523.26 13704.3 7505.55 13719.3 7492.46C13734.2 7479.38 13754.9 7472.06 13776.1 7472.05L19469.1 7469.68C19490.2 7469.67 19511 7476.97 19525.9 7490.04C19540.8 7503.07 19549.5 7520.78 19549.5 7539.29C19549.5 7557.63 19541.3 7575.27 19526.4 7588.35C19511.5 7601.39 19491.3 7608.88 19470.1 7609.1Z"
      fill="#D5D6DA" />
  </g>
  <g opacity="0.6">
    <path
      d="M10437.5 9145.66L7321.85 9146.96L7321.78 8986.19L10386.8 9021.47C10412.4 9021.79 10437 9030.85 10455 9046.68C10473 9062.55 10483.1 9083.93 10483.1 9106.2C10483.1 9116.65 10478.3 9126.72 10469.7 9134.12C10461.2 9141.52 10449.6 9145.66 10437.5 9145.66Z"
      fill="#D5D6DA" />
  </g>
  <g opacity="0.6">
    <path
      d="M11411.6 9538.08L7373.28 9586.51C7366.59 9586.6 7359.95 9585.6 7353.73 9583.43C7347.52 9581.3 7341.88 9578.13 7337.07 9574.08C7332.3 9570.03 7328.54 9565.18 7325.94 9559.83C7323.33 9554.53 7322.03 9548.76 7322.03 9543L7322 9471.89C7321.99 9460.36 7327.28 9449.24 7336.67 9441.09C7346.11 9432.94 7358.86 9428.34 7372.2 9428.33L11410.5 9426.65C11423.8 9426.64 11436.6 9431.23 11446 9439.38C11455.4 9447.52 11460.7 9458.63 11460.8 9470.16L11460.8 9494.52C11460.8 9505.93 11455.6 9516.88 11446.4 9525.03C11437.2 9533.18 11424.7 9537.86 11411.6 9538.08Z"
      fill="#D5D6DA" />
  </g>
  <g opacity="0.6">
    <path
      d="M14629.3 9537.2L11804.2 9584.21C11795.6 9584.34 11787 9583 11779 9580.25C11771 9577.45 11763.7 9573.36 11757.5 9568.1C11751.4 9562.88 11746.5 9556.61 11743.1 9549.72C11739.8 9542.83 11738.1 9535.44 11738.1 9527.96L11738 9482.25C11738 9467.29 11744.9 9452.96 11757.1 9442.42C11769.2 9431.85 11785.7 9425.91 11803 9425.9L14629.3 9424.72C14646.6 9424.76 14663 9430.69 14675.1 9441.25C14687.1 9451.82 14694.3 9466.1 14694.3 9481.02C14694.3 9495.89 14687.1 9510.18 14675.1 9520.72C14663.1 9531.25 14646.7 9537.19 14629.3 9537.2Z"
      fill="#D5D6DA" />
  </g>
  <g opacity="0.6">
    <path
      d="M19470.4 8244.25L13777.4 8304.69C13766.8 8304.78 13756.2 8303.07 13746.1 8299.61C13736.5 8296.19 13727.3 8291.05 13720.1 8284.58C13712.4 8278.06 13706.1 8270.34 13702.3 8261.82C13697.9 8253.29 13696 8244.14 13696 8234.91L13696 8176.88C13696 8158.41 13704.6 8140.69 13719.5 8127.61C13734.5 8114.53 13755.2 8107.21 13776.4 8107.2L19469.3 8104.82C19490.5 8104.82 19511.2 8112.12 19526.2 8125.19C19541.1 8138.22 19549.8 8155.93 19549.8 8174.44C19549.8 8192.78 19541.6 8210.42 19526.7 8223.5C19511.8 8236.54 19491.6 8244.03 19470.4 8244.25Z"
      fill="#D5D6DA" />
  </g>
  <path
    d="M9864.03 6793.08L7546.19 6794.04C7398.21 6794.1 7278.3 6898.1 7278.35 7026.33L7278.91 8282.58C7278.97 8410.81 7398.97 8514.7 7546.95 8514.64L9864.79 8513.68C10012.8 8513.62 10132.6 8409.62 10132.6 8281.39L10132 7025.14C10132 6896.91 10012 6793.01 9864.03 6793.08Z"
    fill="#D5D6DA" />
  <g opacity="0.6">
    <path
      d="M12840.6 6791.83L10742.9 6792.71C10617 6792.76 10515.1 6881.25 10515.1 6990.3L10515.7 8315.91C10515.8 8424.96 10617.8 8513.36 10743.7 8513.31L12841.3 8512.44C12967 8512.38 13069.1 8423.89 13069 8314.85L13068.5 6989.24C13068.4 6880.19 12966.3 6791.78 12840.6 6791.83Z"
      fill="#D5D6DA" />
  </g>
  <path
    d="M9944.09 9469.62C9929.14 10186 9869.95 11166.7 9682.48 12026.7C9370.2 13461.7 7443.72 14446.9 7088.31 14617.9C7070.98 14626.2 7051.62 14630.9 7031.83 14631.6C7012.04 14632.2 6992.34 14628.9 6974.33 14621.7C3959.87 13423 4006.11 11599.6 4006.11 11599.6L4005.16 9457.89C4005.15 9428.98 4018.24 9401.19 4041.63 9380.58C4065.02 9359.98 4096.85 9348.18 4130.17 9347.71C4589.14 9340.96 6189.67 9265.42 6888.91 8553.06C6900.32 8541.57 6914.38 8532.25 6930.17 8525.72C6945.96 8519.16 6963.15 8515.51 6980.68 8515.05C6998.16 8514.54 7015.59 8517.16 7031.83 8522.84C7048.1 8528.47 7062.84 8536.95 7075.08 8547.76C7376.61 8813.07 8359.46 9548.5 9938.69 9469.92L9944.09 9469.62Z"
    fill="#00A3FE" />
  <path
    d="M7024.39 14269.2C7022.42 14269.2 7020.49 14268.8 7018.66 14268.2C6404.09 14028.4 5882.19 13739 5467.13 13407.5C5134.98 13142.2 4870.33 12849.5 4679.79 12537.1C4356.09 12005.6 4362.6 11596.5 4362.6 11592.4L4361.81 9797.42C4361.4 9748.45 4383.14 9701.27 4422.38 9666C4461.61 9630.72 4515.2 9610.18 4571.68 9608.69C4797.05 9601.92 5243.25 9575.91 5697.65 9476.49C6239.74 9357.82 6639.35 9171.35 6886.23 8922.53C6897.74 8910.74 6911.94 8901.21 6927.97 8894.48C6944 8887.75 6961.43 8884.02 6979.25 8883.47C6997.02 8882.96 7014.74 8885.67 7031.26 8891.43C7047.74 8897.19 7062.67 8905.87 7075.1 8916.94C7242.6 9066.02 7693.02 9428.32 8269.7 9571.01C8628.16 9657.6 8997.06 9707.63 9368.87 9720.17C9424.01 9722.15 9476.03 9742.77 9513.85 9777.6C9551.62 9812.47 9572.15 9858.76 9571.02 9906.55C9547.31 10743.6 9477.59 11418.1 9357.64 11968.7C9288.43 12286.1 9123.49 12604.6 8865.76 12915.3C8660.1 13163.4 8395.83 13407.1 8080.13 13639.7C7755.61 13879 7404.12 14089.2 7030.9 14267.3C7028.92 14268.4 7026.71 14269.1 7024.39 14269.2ZM6983.64 8907.82L6980.32 8907.83C6966.31 8908.25 6952.54 8911.18 6939.87 8916.45C6927.26 8921.68 6915.99 8929.12 6906.8 8938.31C6657.13 9191.23 6252.85 9380.16 5705.03 9499.97C5248.12 9600.01 4799.9 9626.15 4573.19 9632.93C4523.97 9634.24 4477.31 9652.14 4443.09 9682.87C4408.91 9713.55 4389.86 9754.63 4390.07 9797.28L4390.87 11593.2C4390.87 11597.5 4384.55 12001.5 4705.6 12528C4894.07 12837.1 5156.94 13127.4 5486.92 13390.6C5898.12 13718.8 6415.11 14005.9 7023.85 14243.8C7393.18 14067 7741.21 13858.6 8062.73 13621.7C8555.5 13258.8 9175.58 12676.2 9330.52 11964.6C9450.14 11415.5 9519.67 10742.1 9543.42 9906.44C9544.18 9864.91 9526.29 9824.81 9493.48 9794.53C9460.68 9764.3 9415.55 9746.31 9367.68 9744.4C8993.84 9731.73 8622.97 9681.38 8262.53 9594.41C7679.45 9449.51 7224.16 9084.46 7055.7 8933.91C7046.35 8925.56 7035.13 8918.96 7022.75 8914.45C7010.37 8909.99 6997.08 8907.74 6983.64 8907.82Z"
    fill="#131F2D" />
  <path
    d="M7669.71 12475.8L5762.45 12476.6C5677.55 12476.6 5596.16 12447.3 5536.13 12395.3C5476.06 12343.4 5442.27 12272.8 5442.19 12199.3L5441.74 11179.4C5441.75 11105.9 5475.43 11035.3 5535.46 10983.2C5595.44 10931.2 5676.81 10901.8 5761.76 10901.7L5869.24 10901.7C5915.16 10737.3 6023.54 10590.9 6176.97 10486.3C6330.39 10381.6 6519.91 10324.7 6715.13 10324.6C6910.36 10324.5 7099.97 10381.3 7253.44 10485.8C7406.96 10590.4 7515.47 10736.6 7561.53 10901L7669.02 10900.9C7753.97 10901 7835.41 10930.2 7895.48 10982.2C7955.56 11034.3 7989.34 11104.8 7989.47 11178.4L7989.92 12198.2C7989.81 12271.8 7956.04 12342.4 7896.06 12394.4C7836.03 12446.4 7754.61 12475.7 7669.71 12475.8ZM5761.77 10925.5C5684.14 10925.7 5609.75 10952.5 5554.92 11000.1C5500.05 11047.7 5469.25 11112.2 5469.19 11179.4L5469.64 12199.3C5469.77 12266.5 5500.66 12331 5555.53 12378.5C5610.4 12426.1 5684.82 12452.8 5762.44 12452.8L7669.7 12452C7747.33 12451.9 7821.72 12425.1 7876.6 12377.6C7931.47 12330 7962.36 12265.5 7962.47 12198.3L7962.02 11178.4C7961.9 11111.1 7931 11046.6 7876.08 10999.1C7821.12 10951.5 7746.7 10924.8 7669.03 10924.7L7550.66 10924.8C7547.58 10924.8 7544.54 10923.9 7542.14 10922.2C7539.68 10920.6 7537.99 10918.2 7537.27 10915.6C7494.39 10754.5 7389.73 10610.8 7240.4 10507.9C7091.07 10405 6905.94 10349 6715.14 10349.1C6524.35 10349.2 6339.26 10405.3 6190.03 10508.3C6040.79 10611.4 5936.26 10755.2 5893.52 10916.3C5892.85 10919 5891.11 10921.3 5888.71 10922.9C5886.25 10924.6 5883.22 10925.5 5880.13 10925.5L5761.77 10925.5ZM7331.65 10924.9L6099.29 10925.4C6097.17 10925.4 6095.06 10925 6093.13 10924.1C6091.2 10923.3 6089.52 10922.1 6088.26 10920.6C6086.96 10919.1 6086.09 10917.4 6085.71 10915.5C6085.37 10913.7 6085.47 10911.8 6086.09 10910C6127.89 10793.7 6211.44 10692 6324.62 10619.8C6437.81 10547.6 6574.65 10508.6 6715.22 10508.5C6855.78 10508.4 6992.66 10547.3 7105.9 10619.5C7219.15 10691.6 7302.84 10793.2 7344.69 10909.5C7345.37 10911.3 7345.56 10913.1 7345.22 10915C7344.84 10916.8 7344.02 10918.6 7342.72 10920.1C7341.47 10921.6 7339.79 10922.8 7337.86 10923.6C7335.93 10924.5 7333.82 10924.9 7331.65 10924.9ZM6118.21 10901.6L7312.9 10901.1C7270.05 10793.3 7189.44 10699.9 7082.36 10633.8C6975.28 10567.6 6847.07 10532.1 6715.56 10532.2C6584.05 10532.2 6455.87 10567.9 6348.85 10634.1C6241.83 10700.3 6161.31 10793.8 6118.54 10901.6L6118.21 10901.6Z"
    fill="#131F2D" />
  <path
    d="M7854.7 10751.4L6057.9 10752.2C5876.36 10752.2 5729.25 10879.8 5729.32 11037.1L5729.75 12018.5C5729.82 12175.8 5877.04 12303.3 6058.59 12303.2L7855.38 12302.5C8036.88 12302.4 8183.99 12174.8 8183.92 12017.5L8183.49 11036.1C8183.42 10878.8 8036.2 10751.3 7854.7 10751.4Z"
    fill="#131F2D" />
  <path
    d="M6956.75 11661C6787.19 11661.1 6621.42 11617.6 6480.38 11536.1C6339.3 11454.5 6229.35 11338.5 6164.38 11202.8C6099.41 11067 6082.39 10917.6 6115.36 10773.5C6148.38 10629.4 6229.99 10496.9 6349.86 10393C6469.72 10289 6622.44 10218.2 6788.75 10189.4C6955.02 10160.7 7127.43 10175.3 7284.1 10231.6C7440.78 10287.7 7574.74 10382.9 7668.94 10505.1C7763.19 10627.2 7813.53 10770.9 7813.54 10917.8C7813.39 11114.8 7723.08 11303.6 7562.45 11442.9C7401.82 11582.3 7183.99 11660.7 6956.75 11661ZM6956.17 10358.8C6828.51 10358.8 6703.7 10391.6 6597.6 10453.2C6491.44 10514.7 6408.7 10602.1 6359.86 10704.3C6311.03 10806.5 6298.27 10919 6323.22 11027.5C6348.16 11136 6409.65 11235.7 6499.98 11313.9C6590.26 11392.1 6705.28 11445.4 6830.54 11466.9C6955.76 11488.4 7085.53 11477.3 7203.49 11435C7321.41 11392.5 7422.21 11320.8 7493.11 11228.8C7564 11136.7 7601.8 11028.6 7601.76 10917.9C7601.5 10769.6 7533.39 10627.5 7412.38 10522.7C7291.36 10417.9 7127.32 10358.9 6956.17 10358.8Z"
    fill="#131F2D" />
  <path
    d="M6956.72 11587.9C6933.02 11587.9 6910.34 11579.7 6893.57 11565.2C6876.81 11550.7 6867.36 11531 6867.31 11510.4L6867.14 11134.7C6867.18 11114.2 6876.61 11094.5 6893.36 11080C6910.11 11065.4 6932.79 11057.3 6956.48 11057.2C6980.18 11057.3 7002.86 11065.5 7019.58 11080C7036.29 11094.5 7045.74 11114.1 7045.8 11134.7L7045.96 11510.3C7045.93 11530.9 7036.5 11550.5 7019.79 11565.1C7003.09 11579.6 6980.41 11587.8 6956.72 11587.9Z"
    fill="#00A3FE" />
  <path
    d="M6956.86 11928.5C7089.96 11928.4 7197.79 11834.9 7197.74 11719.6C7197.68 11604.2 7089.78 11510.8 6956.67 11510.8C6823.62 11510.9 6715.79 11604.4 6715.84 11719.8C6715.89 11835.1 6823.8 11928.5 6956.86 11928.5Z"
    fill="#00A3FE" />
  <path
    d="M11336.6 6281.53C11331.3 6281.53 11326.1 6280.45 11321.4 6278.36L10977.7 6129.64C10973.7 6127.93 10970 6125.55 10967.1 6122.66C10964.1 6119.74 10961.8 6116.32 10960.4 6112.64C10959 6108.92 10958.4 6105.04 10958.8 6101.15C10959.1 6097.27 10960.4 6093.46 10962.4 6089.99C10964.4 6086.48 10967.2 6083.35 10970.5 6080.76C10973.9 6078.21 10977.8 6076.24 10982.1 6074.99C10986.3 6073.77 10990.8 6073.27 10995.3 6073.6C10999.8 6073.89 11004.2 6074.98 11008.2 6076.77L11352.3 6225.24C11359.9 6227.75 11366.2 6232.55 11370 6238.73C11373.9 6244.95 11374.9 6252.18 11373 6259.03C11371.2 6265.89 11366.5 6271.91 11359.9 6276C11353.3 6280.1 11345.2 6281.94 11337.1 6281.23L11336.6 6281.53Z"
    fill="#131F2D" />
  <path
    d="M10848.5 6639.16C10839.5 6639.42 10830.7 6636.54 10824.1 6631.19C10817.5 6625.85 10813.6 6618.41 10813.3 6610.6C10813 6602.75 10816.4 6595.14 10822.5 6589.41C10828.7 6583.73 10837.3 6580.34 10846.3 6580.09L11228 6557.57C11237.1 6557.07 11246 6559.61 11252.8 6564.79C11259.6 6569.93 11263.8 6577.2 11264.4 6585.01C11265 6592.82 11262.1 6600.51 11256.1 6606.45C11250.2 6612.34 11241.8 6615.98 11232.8 6616.53L10850.9 6639L10848.5 6639.16Z"
    fill="#131F2D" />
  <path
    d="M11064.7 7135.05C11057 7135.43 11049.4 7133.51 11043.1 7129.59C11036.9 7125.66 11032.4 7119.98 11030.4 7113.51C11028.4 7107.03 11029.1 7100.18 11032.3 7094.08C11035.5 7087.98 11041 7083.04 11048 7080.07L11379.9 6910.89C11383.8 6908.93 11388 6907.63 11392.4 6907.08C11396.9 6906.54 11401.4 6906.75 11405.7 6907.75C11410 6908.71 11414.1 6910.42 11417.6 6912.72C11421.2 6915.05 11424.2 6917.98 11426.5 6921.32C11428.7 6924.62 11430.2 6928.34 11430.8 6932.14C11431.5 6935.98 11431.2 6939.91 11430.1 6943.63C11429 6947.39 11427 6950.9 11424.3 6953.99C11421.7 6957.08 11418.3 6959.68 11414.4 6961.64L11082.6 7130.82C11077.2 7133.62 11071 7135.09 11064.7 7135.05Z"
    fill="#131F2D" />
  <path
    d="M12453.4 6281.06C12447.1 6281.15 12440.9 6279.61 12435.4 6276.73C12430 6273.8 12425.7 6269.67 12422.9 6264.7C12420.9 6261.23 12419.6 6257.47 12419.2 6253.59C12418.9 6249.7 12419.4 6245.77 12420.9 6242.1C12422.3 6238.38 12424.5 6234.99 12427.5 6232.07C12430.5 6229.14 12434.1 6226.76 12438.2 6225.08L12782 6076.33C12786.3 6074.61 12790.7 6073.57 12795 6073.31C12799.3 6073.06 12804.2 6073.56 12808 6074.77C12812.3 6076.02 12816.2 6077.94 12819.6 6080.49C12822.9 6083.04 12825.8 6086.13 12827.8 6089.59C12829.7 6093.06 12831.1 6096.82 12831.1 6100.71C12831.6 6104.55 12831.1 6108.44 12829.7 6112.11C12828.3 6115.79 12825.8 6119.18 12823 6122.1C12820.1 6125.03 12816.7 6127.41 12812.4 6129.12L12468 6277.59C12463.5 6279.68 12458.5 6280.89 12453.4 6281.06Z"
    fill="#131F2D" />
  <path
    d="M12941.6 6638.29L12939.2 6638.29L12557.5 6616.1C12548.5 6615.56 12540.1 6611.93 12534.2 6606.04C12528.3 6600.15 12525.3 6592.42 12525.9 6584.61C12526.5 6576.8 12530.7 6569.52 12537.5 6564.38C12544.3 6559.24 12553.2 6556.65 12562.2 6557.19L12944 6579.38C12953.2 6579.63 12961.4 6582.96 12967.6 6588.69C12973.9 6594.41 12977.3 6602.01 12976.8 6609.82C12976.8 6617.68 12972.9 6625.07 12966.2 6630.43C12959.5 6635.82 12950.8 6638.66 12941.6 6638.42L12941.6 6638.29Z"
    fill="#131F2D" />
  <path
    d="M12726 7134.36C12720.2 7134.28 12714.4 7132.82 12709.3 7130.14L12377.4 6961.24C12373.5 6959.28 12370.2 6956.69 12367.5 6953.6C12364.8 6950.51 12362.8 6947 12361.7 6943.24C12360.6 6939.52 12360.3 6935.59 12360.9 6931.75C12361.5 6927.95 12363 6924.23 12365.3 6920.93C12367.6 6917.58 12370.5 6914.66 12374.1 6912.32C12377.7 6910.02 12381.8 6908.3 12386 6907.34C12390.4 6906.33 12394.9 6906.12 12399.3 6906.66C12403.7 6907.21 12408 6908.5 12411.9 6910.46L12743.3 7079.08C12750.2 7082.04 12755.7 7086.97 12758.9 7093.06C12762.2 7099.16 12762.7 7106.01 12760.8 7112.49C12758.9 7118.97 12754.4 7124.65 12748.1 7128.58C12741.9 7132.51 12734.3 7134.44 12726.6 7134.06L12726 7134.36Z"
    fill="#131F2D" />
  <path
    d="M12578.6 6469.69C12578.7 6852.78 12285.7 7166.33 11917.3 7185.33C11905.3 7185.92 11893.2 7186.22 11881.2 7186.22C11496.1 7186.38 11183.3 6865.81 11183.2 6470.27C11181.5 6310.96 11234.9 6154.85 11336.5 6022.07C11464.2 5858.49 11660.4 5753.62 11880.5 5753.53C11940.8 5753.59 12000.7 5761.46 12058.2 5776.98C12208.9 5820.12 12338.2 5906.38 12424.9 6021.62C12526.5 6154.31 12580.1 6310.38 12578.6 6469.69Z"
    fill="#657285" />
  <path
    d="M12578.6 6469.65C12578.7 6852.78 12285.7 7166.34 11917.3 7185.33C11869.6 7067.03 11835.5 6944.96 11815.4 6820.84C11773.1 6563.45 11790.9 6319.36 11855.4 6120.83C11901.1 5979.47 11970.5 5861.04 12058.2 5776.98C12208.9 5820.12 12338.2 5906.38 12424.9 6021.62C12526.5 6154.31 12580.1 6310.38 12578.6 6469.65Z"
    fill="#657285" />
  <path
    d="M11880.8 6290.33C12181.3 6290.2 12424.9 6169.94 12424.9 6021.79C12424.8 5873.59 12181.1 5753.57 11880.5 5753.7C11580 5753.82 11336.4 5874.04 11336.5 6022.24C11336.6 6170.39 11580.2 6290.45 11880.8 6290.33Z"
    fill="#131F2D" />
  <path
    d="M11727.9 5846.76C11719 5846.77 11710.5 5843.72 11704.2 5838.29C11697.9 5832.82 11694.4 5825.47 11694.4 5817.78C11687.9 5593.55 11449.3 5502.82 11446.8 5501.94C11438.4 5498.9 11431.9 5493.05 11428.5 5485.78C11425.1 5478.51 11425.2 5470.36 11428.7 5463.14C11432.3 5455.95 11439 5450.22 11447.4 5447.29C11455.8 5444.36 11465.2 5444.44 11473.5 5447.53C11485.1 5451.87 11755 5554.5 11762.4 5816.29C11762.6 5820.18 11761.8 5824.11 11760.2 5827.74C11758.6 5831.42 11756.2 5834.76 11753 5837.56C11749.9 5840.4 11746.2 5842.62 11742 5844.17C11737.9 5845.67 11733.4 5846.47 11728.9 5846.47L11727.9 5846.76Z"
    fill="#131F2D" />
  <path
    d="M12009.6 5922.57C12001 5922.57 11992.8 5919.77 11986.6 5914.76C11980.4 5909.71 11976.6 5902.82 11976 5895.42C11946.9 5579.41 12195.5 5454.21 12206.1 5448.99C12213.9 5445.14 12223.3 5444.13 12231.9 5446.22C12240.6 5448.3 12248 5453.31 12252.4 5460.12C12256.9 5466.93 12258 5474.99 12255.6 5482.56C12253.2 5490.08 12247.5 5496.47 12239.6 5500.32C12230.2 5505 12018.4 5613.76 12043.8 5890.76C12044.3 5894.64 12043.8 5898.53 12042.4 5902.21C12041.1 5905.92 12038.9 5909.35 12036 5912.28C12033.1 5915.24 12029.5 5917.63 12025.5 5919.38C12021.5 5921.14 12017.2 5922.15 12012.7 5922.4L12009.6 5922.57Z"
    fill="#131F2D" />
  <g opacity="0.4">
    <path
      d="M13930.1 8293.31C15036.3 7333.53 15035.6 5778.08 13928.5 4819.18C12821 3860.32 11026.3 3861.07 9919.74 4820.85C8813.16 5780.67 8813.85 7336.12 9921.23 8294.98C11028.7 9253.88 12823.4 9253.13 13930.1 8293.31Z"
      fill="#00A3FE" />
  </g>
  <path
    d="M15148.1 8649.31C15148.1 8649.31 14647.2 8658.96 14509.9 8468.79C14372.1 8278.58 14605.1 8112.95 14605.1 8112.95L15350.7 8461.88L15148.1 8649.31Z"
    fill="#FF7955" />
  <path d="M14367 7654.68L14149 7959.85L19679.6 10925.2L19897.6 10620L14367 7654.68Z" fill="#131F2D" />
  <path
    d="M19951.1 10746.4L19832.7 10912.1C19810.1 10943.8 19773.5 10966.3 19732.1 10974.9C19690.2 10983.4 19646.4 10977.2 19609.8 10957.6L16724.6 9410.48C16687.9 9390.9 16661.9 9359.54 16652.3 9323.27C16642.2 9287.05 16649.4 9248.91 16672 9217.23L16790.4 9051.48C16813 9019.84 16849.1 8997.26 16891 8988.72C16932.9 8980.18 16976.7 8986.39 17013.3 9005.97L19898.5 10553.1C19935.1 10572.7 19961.1 10604.1 19970.8 10640.3C19980.9 10676.5 19973.7 10714.7 19951.1 10746.4Z"
    fill="#131F2D" />
  <path
    d="M9401.5 5203.9C9092.68 5636.41 8938.7 6138.63 8959.2 6646.97C8979.65 7155.3 9173.55 7646.94 9516.46 8059.75C9859.32 8472.53 10335.8 8787.94 10885.5 8966.03C11435.2 9144.16 12033.6 9176.96 12604.9 9060.36C13176.2 8943.76 13694.7 8682.96 14095.2 8310.95C14495.2 7938.94 14759.4 7472.43 14853.6 6970.4C14948.2 6468.37 14868.5 5953.37 14625.1 5490.51C14381.8 5027.68 13985.7 4637.78 13486.7 4370.09C13155.3 4192.37 12786.9 4072.99 12402.1 4018.71C12017.5 3964.43 11624.3 3976.34 11244.9 4053.75C10865.6 4131.16 10507.5 4272.61 10191.2 4469.94C9874.97 4667.28 9606.62 4916.65 9401.5 5203.9ZM14226.9 7791.52C13944.9 8186.13 13534.3 8499.49 13047 8691.92C12559.9 8884.4 12017.8 8947.3 11489.3 8872.73C10960.8 8798.16 10469.7 8589.42 10078.1 8272.93C9686.55 7956.48 9412.07 7546.48 9289.36 7094.76C9166.7 6643.08 9201.31 6169.99 9388.83 5735.31C9576.4 5300.63 9908.46 4923.92 10343 4652.8C10777.6 4381.63 11295.2 4228.29 11830.4 4212.06C12365.5 4195.88 12893.9 4317.53 13349.6 4561.72C13651.6 4723.82 13914.1 4935.96 14121.8 5186.01C14329.9 5436.06 14478.4 5719.15 14559.9 6019.06C14641.4 6319.01 14654.1 6629.89 14596.9 6933.99C14539.7 7238.14 14413.7 7529.52 14226.9 7791.52Z"
    fill="#131F2D" />
  <path
    d="M19624.4 9195.82C19490.1 8326.84 18365.5 7836.39 18365.5 7836.39C18365.5 7836.39 18461.7 9773.12 18653.8 9715.88C18982.7 9617.94 19433.4 9615.71 19624.4 9195.82Z"
    fill="#00A3FE" />
  <path
    d="M17429.2 14081.9C17429.2 14081.9 17420.6 14227 17307.5 14266C17194.3 14304.9 16868.8 14333.9 16987.3 14430.2C17055.2 14485.6 17384.1 14459 17476.6 14460.6C17569 14462.2 17654.8 14500.3 17725.5 14447.5C17803 14389.4 17736.4 14089.2 17736.4 14089.2C17736.4 14089.2 17655.1 14123.9 17583.3 14120.6C17480.3 14115.8 17429.2 14081.9 17429.2 14081.9Z"
    fill="#131F2D" />
  <path
    d="M16615.7 10415C16637.5 10716.9 16678.6 11108.9 16754.4 11588.3C16898.8 12502.5 17074 13423.7 17160.4 13865.5C17173.9 13941 17216.3 14010.4 17280.9 14062.5C17345.4 14114.5 17428.3 14146.3 17515.9 14152.5L17611.7 14158.2C17803.9 14169.4 17964.7 14027.4 17955.9 13854.2L17803.9 10874.9L17789.2 10401C17789.2 10401 16579.8 9919.76 16615.7 10415Z"
    fill="#364154" />
  <path
    d="M18489.6 14106.7C18489.6 14106.7 18481 14251.8 18367.9 14290.6C18254.7 14329.4 17929.2 14358.5 18047.7 14455C18115.6 14510.3 18444 14483.9 18537 14485.4C18629.4 14487 18715.2 14525.1 18785.5 14472.1C18863 14414.1 18796.4 14113.8 18796.4 14113.8C18796.4 14113.8 18715.5 14148.6 18643.7 14145.2C18540.2 14140.5 18489.6 14106.7 18489.6 14106.7Z"
    fill="#131F2D" />
  <path
    d="M17656.5 9691.06C17656.5 9691.06 17614.4 10347.5 17814.3 11613.3C17959.2 12527.4 18134.4 13448.6 18220.8 13890.5C18234.3 13966 18276.7 14035.4 18340.8 14087.5C18405.3 14139.5 18488.2 14171.3 18576.3 14177.5L18672.2 14183.1C18864.3 14194.3 19025.1 14052.4 19015.9 13879.1L18863.8 10899.9L18834 9919.82L17656.5 9691.06Z"
    fill="#364154" />
  <path
    d="M17862.1 11871L17847.7 11869.2C17847.7 11863.9 17929.8 11325.7 17991.3 11132.6C18052.9 10939.4 18339.3 10769.7 18342.7 10767.5L18350.9 10778.1C18348.5 10779.7 18066.4 10945.5 18005.8 11135.9C17945.2 11326.3 17862.1 11865.6 17862.1 11871Z"
    fill="#131F2D" />
  <path
    d="M17863.6 7673.07L17789.4 7476.73L17767.7 7419.58L17639.9 7083.43L17623.2 7417.18L17613.2 7618.02L17610.3 7681.57C17607.9 7725.1 17575.7 7733.68 17536.7 7771.3C17520.8 7785.81 17419.7 7878.56 17534.8 7920.04C17678.4 7971.91 17946.6 7893.3 18048.6 7790.35C18047.6 7790.81 17887.7 7736.6 17863.6 7673.07Z"
    fill="#FF7955" />
  <path
    d="M18015.1 7266.56C18058.4 7070.88 17932.6 6885.68 17734.2 6852.92C17536.3 6820.17 17340.8 6952.23 17297.6 7147.95C17254.8 7343.67 17380.1 7528.87 17578.5 7561.63C17776.4 7594.39 17971.9 7462.28 18015.1 7266.56Z"
    fill="#FF7955" />
  <path
    d="M17453.6 7083.5C17244.6 7089.98 17142.9 6991.47 17140.5 6900.22C17137.5 6783.11 17227.5 6679.46 17332.5 6722.95C17437.5 6766.44 17392.7 6659.67 17493.3 6648.3C17682.1 6627.04 17717.8 6736.7 17871.9 6742.02C18075.6 6748.88 18307.3 7026.12 18137.4 7228.62C18137.4 7228.62 17618.7 7078.34 17453.6 7083.5Z"
    fill="#131F2D" />
  <path
    d="M17267.1 6965.43C17267.1 6965.43 17490.7 7141.07 17461.3 7240.06C17432 7339.05 17439.2 7377.65 17569.8 7430.4C17700.3 7483.16 17585.2 7568.69 17759.1 7575.43C17932.9 7582.17 18145.7 7413.62 18145.6 7137.62C18144.6 7044.45 18106.5 6954.47 18037.1 6883.14L17267.1 6965.43Z"
    fill="#131F2D" />
  <path
    d="M17348.6 7235.75C17359.7 7221.75 17377 7211.93 17396.3 7208.28C17415.6 7204.6 17435.3 7207.35 17452.7 7215.99C17460.4 7220.79 17466.6 7226.93 17471.4 7234.03C17476.3 7241.13 17479.6 7248.99 17480.6 7257.17C17482.1 7265.36 17481.1 7273.64 17478.2 7281.53C17475.8 7289.43 17471 7296.74 17464.7 7303.06C17453.7 7317.06 17436.3 7326.84 17417.1 7330.48C17397.8 7334.13 17378.1 7331.34 17360.7 7322.65C17353 7317.89 17346.8 7311.75 17341.9 7304.69C17337.1 7297.59 17333.7 7289.74 17332.8 7281.55C17331.3 7273.36 17332.3 7265.09 17335.2 7257.19C17337.6 7249.3 17342.4 7242.02 17348.6 7235.75Z"
    fill="#FFB27D" />
  <path
    d="M18221.3 7304.75C18220.3 7304.71 18218.9 7304.33 18217.9 7303.7C18216.9 7303.04 18216.5 7302.16 18216 7301.11C18206.8 7276.68 18188 7256.04 18162 7243.1C18161.5 7242.85 18161 7242.48 18160.6 7242.02C18160.1 7241.56 18160.1 7241.02 18159.6 7240.43C18159.6 7239.85 18159.6 7239.26 18159.6 7238.68C18159.6 7238.09 18159.6 7237.51 18160.1 7237C18160.6 7236.5 18161 7236 18161.5 7235.63C18162 7235.25 18162.5 7234.96 18163.4 7234.79C18163.9 7234.62 18164.4 7234.58 18165.4 7234.62C18165.9 7234.66 18166.8 7234.83 18167.3 7235.12C18195.7 7249.4 18216.9 7272.45 18226.6 7299.69C18226.6 7300.27 18226.6 7300.86 18226.6 7301.44C18226.6 7302.03 18226.1 7302.61 18225.6 7303.12C18225.6 7303.66 18225.1 7304.08 18224.2 7304.45C18223.7 7304.79 18223.2 7305.04 18222.7 7305.21L18221.3 7304.75Z"
    fill="#131F2D" />
  <path
    d="M18164.9 7221.92C18163.4 7221.92 18162 7221.5 18161 7220.71C18160.1 7219.92 18159.6 7218.83 18159.6 7217.7C18159.6 7217.12 18159.6 7216.53 18159.6 7215.95C18160.1 7215.4 18160.1 7214.9 18160.5 7214.44C18161 7213.98 18162 7213.65 18162.5 7213.36C18163 7213.11 18163.4 7212.94 18164.4 7212.94C18164.4 7212.94 18221.2 7209.57 18229.4 7173.85C18229.9 7172.68 18230.8 7171.63 18231.8 7170.96C18232.8 7170.29 18234.2 7170 18235.7 7170.21C18237.1 7170.46 18238.1 7171.17 18239 7172.17C18240 7173.17 18240 7174.38 18240 7175.6C18229.9 7218.13 18167.8 7221.75 18164.9 7221.92Z"
    fill="#131F2D" />
  <path
    d="M17364.3 6715.96C17360.5 6715.96 17356.6 6715.5 17353.2 6714.5C17337.8 6710.37 17323.4 6704.11 17310.4 6695.97C17298.3 6687.28 17283.9 6681.48 17268.5 6679.19C17253.5 6676.9 17237.6 6678.2 17223.2 6682.92C17222.2 6683.13 17221.8 6683.18 17221.3 6683.13C17220.3 6683.05 17219.8 6682.88 17218.9 6682.59C17218.4 6682.34 17217.9 6681.92 17217.4 6681.46C17216.9 6681 17216.9 6680.46 17216.5 6679.88C17216.5 6679.33 17216.5 6678.71 17216.5 6678.12C17216.5 6677.54 17216.5 6676.95 17216.9 6676.41C17217.4 6675.91 17217.9 6675.45 17218.4 6675.07C17218.9 6674.7 17219.3 6674.4 17220.3 6674.23C17236.2 6669.17 17253.5 6667.87 17270.4 6670.41C17287.2 6672.95 17302.7 6679.26 17315.7 6688.69C17328.2 6696.33 17341.7 6702.18 17356.1 6706.1C17359.5 6707.14 17363.3 6707.47 17367.2 6706.97C17371.1 6706.51 17374.9 6705.26 17378.3 6703.33C17400.9 6689.83 17406.7 6645.29 17406.7 6645.29C17406.7 6644.12 17407.6 6643.03 17408.6 6642.28C17409.5 6641.53 17411 6641.15 17412.4 6641.23C17412.9 6641.27 17413.9 6641.44 17414.4 6641.73C17414.8 6642.02 17415.3 6642.4 17415.8 6642.9C17416.3 6643.36 17416.8 6643.9 17416.8 6644.49C17417.3 6645.07 17417.3 6645.7 17416.8 6646.29C17416.8 6648.17 17411 6694.75 17383.6 6710.72C17377.8 6714.15 17371.1 6715.99 17364.3 6715.96Z"
    fill="#131F2D" />
  <path
    d="M17856 6727.49C17806.9 6725.63 17759.7 6709.53 17722.1 6681.72C17721.6 6681.34 17721.1 6680.88 17720.7 6680.34C17720.2 6679.79 17720.2 6679.17 17719.7 6678.54C17719.7 6677.92 17719.7 6677.29 17720.2 6676.66C17720.2 6676.08 17720.7 6675.53 17721.1 6675.03C17721.6 6674.57 17722.1 6674.2 17723.1 6673.95C17723.5 6673.69 17724.5 6673.53 17725 6673.53C17725.9 6673.53 17726.4 6673.65 17727.4 6673.94C17727.9 6674.19 17728.4 6674.57 17728.8 6675.03C17728.8 6675.03 17798.2 6727.68 17878.1 6717.04C17879.6 6716.87 17881 6717.21 17882 6717.87C17883.4 6718.58 17883.9 6719.67 17884.4 6720.84C17884.4 6722.01 17883.9 6723.22 17883.4 6724.18C17882.5 6725.19 17881 6725.85 17879.6 6726.06C17871.9 6727.03 17864.2 6727.53 17856 6727.49Z"
    fill="#131F2D" />
  <path
    d="M17404.6 7335.13C17399.7 7335.25 17394.9 7334.71 17390.1 7333.55C17389.6 7333.5 17389.6 7333.38 17389.2 7333.21C17388.7 7333.04 17388.7 7332.84 17388.2 7332.54C17388.2 7332.29 17388.2 7332 17388.2 7331.67C17387.7 7331.33 17387.7 7331.04 17388.2 7330.71C17388.2 7330.41 17388.2 7330.12 17388.7 7329.87C17388.7 7329.66 17389.2 7329.45 17389.6 7329.37C17389.6 7329.24 17390.1 7329.2 17390.6 7329.2C17391.1 7329.24 17391.6 7329.32 17391.6 7329.49C17393.5 7329.49 17438.8 7341.8 17471 7289.56C17471 7289.27 17471.5 7289.06 17471.5 7288.85C17472 7288.68 17472 7288.56 17472.4 7288.47C17472.9 7288.39 17472.9 7288.35 17473.4 7288.39C17473.9 7288.43 17473.9 7288.51 17474.4 7288.68C17474.9 7288.93 17475.3 7289.39 17475.3 7289.93C17475.8 7290.48 17475.8 7291.06 17475.3 7291.56C17452.2 7328.88 17422.4 7335.12 17404.6 7335.13Z"
    fill="#131F2D" />
  <path
    d="M16615.7 10415C16615.7 10415 18132.1 10341.8 18851.6 10493.7L18862.6 10313.2L17853.1 10051.7L17038.3 10069.6L16788.4 10116.7L16611.8 10356.9L16615.7 10415Z"
    fill="#131F2D" />
  <path
    d="M18716.2 8215.56C18716.2 8215.56 18582.1 7710.62 17765.9 7710.96C16342.9 7711.55 16742.5 8732.54 16611.8 10356.2C16611.8 10356.2 17529.1 10180.8 18856.4 10413.3C18856.4 10413.3 18985.5 9534.04 18818.1 8790.88C18773.7 8594.4 18781.3 8386.17 18716.2 8215.56Z"
    fill="#00A3FE" />
  <path
    d="M17602.2 7711.03C17602.2 7711.03 17145.6 7717.03 16806.3 7999.1C16467.4 8281.22 16030.3 8669.58 15937.5 8892.94C15823.4 9168.7 16034 9444.32 16300.8 9449.72C16567.6 9455.13 16806.8 9285.1 16806.8 9285.1L17602.2 7711.03Z"
    fill="#00A3FE" />
  <path
    d="M18899.5 10017L18889.4 10017C18928.6 9380.11 18800.2 8728.18 18798.8 8721.66L18808.9 8720.19C18809.4 8726.29 18938.3 9379.27 18899.5 10017Z"
    fill="#131F2D" />
  <path
    d="M16648.9 9376.71L16643.6 9369.32C16911.8 9229.91 17260.8 8863.06 17264.1 8859.3L17271.8 8864.93C17268.5 8868.57 16918.5 9236.72 16648.9 9376.71Z"
    fill="#131F2D" />
  <path
    d="M14786 8722.16C14782.7 8902.28 15812.1 9560.06 16429.4 9449.79C17085.7 9333.45 16275.4 8700.23 16275.4 8700.23L15065.6 8459.41C15065.6 8459.41 14789.3 8539.79 14786 8722.16Z"
    fill="#00A3FE" />
  <path
    d="M15065.6 8459.41C15069 8438.44 15066.6 8417.09 15057.9 8397.2C15049.7 8377.28 15035.7 8359.49 15017.9 8345.25C14955.8 8297.81 14891.2 8081.45 14850.2 8135.74C14809.8 8190.03 14847.5 8362.7 14785.8 8381.32C14724.2 8399.89 15065.6 8459.41 15065.6 8459.41Z"
    fill="#FF7955" />
  <path
    d="M15516.6 4611.03L15455.9 4611.06C15447.7 4611.06 15440 4613.78 15434.7 4618.63C15429 4623.48 15426.1 4630.04 15426.1 4636.89L15426.2 4869.07C15426.2 4875.96 15422.8 4882.56 15417 4887.45C15411.7 4892.3 15404 4895.06 15395.9 4895.07L15374.7 4895.08C15366.5 4895.04 15359.3 4892.28 15353.5 4887.44C15348.2 4882.55 15344.8 4875.95 15344.8 4869.1L15344.7 4636.93C15344.7 4630.07 15341.3 4623.52 15336 4618.67C15330.2 4613.83 15322.5 4611.12 15314.8 4611.12L15255.6 4611.14C15247.4 4611.15 15239.7 4608.39 15234.4 4603.55C15228.6 4598.66 15225.2 4592.06 15225.2 4585.17L15225.2 4580.11C15225.2 4573.22 15228.6 4566.62 15234.4 4561.73C15239.7 4556.84 15247.4 4554.12 15255.6 4554.11L15516.6 4554C15524.8 4554 15532 4556.71 15537.8 4561.6C15543.5 4566.49 15546.4 4573.09 15546.4 4579.98L15546.4 4585.03C15546.5 4591.93 15543.6 4598.53 15537.8 4603.42C15532 4608.27 15524.8 4611.03 15516.6 4611.03Z"
    fill="#00A3FE" />
  <path
    d="M15799.3 4746.87L15703 4746.91C15695.3 4746.92 15687.6 4749.68 15682.3 4754.52C15676.5 4759.33 15673.7 4765.93 15673.7 4772.79L15673.7 4812.39C15673.7 4819.25 15676.6 4825.85 15682.4 4830.69C15687.7 4835.58 15695.4 4838.33 15703.1 4838.37L15826.3 4838.32C15830.2 4838.32 15834.5 4838.98 15837.9 4840.28C15841.8 4841.57 15844.6 4843.49 15847.5 4845.91C15850.4 4848.34 15852.8 4851.18 15854.3 4854.35C15855.7 4857.48 15856.2 4860.87 15856.2 4864.25L15856.2 4868.89C15856.2 4872.32 15855.7 4875.7 15854.3 4878.83C15852.9 4881.97 15850.4 4884.85 15847.6 4887.28C15844.7 4889.7 15841.8 4891.58 15837.9 4892.92C15834.6 4894.22 15830.2 4894.89 15826.4 4894.89L15622.2 4894.97C15614.5 4894.98 15606.8 4892.26 15601 4887.38C15595.2 4882.49 15592.3 4875.89 15592.3 4869L15592.2 4578.79C15592.2 4571.9 15595.1 4565.3 15600.9 4560.4C15606.6 4555.56 15614.3 4552.79 15622 4552.79L15825.7 4552.71C15833.9 4552.75 15841.2 4555.5 15846.9 4560.39C15852.7 4565.23 15855.6 4571.83 15855.6 4578.68L15855.6 4583.78C15855.6 4590.63 15852.7 4597.19 15846.9 4602.08C15841.2 4606.93 15833.9 4609.69 15825.8 4609.74L15703 4609.79C15695.3 4609.79 15687.6 4612.51 15682.3 4617.36C15676.5 4622.21 15673.6 4628.81 15673.6 4635.66L15673.6 4664.66C15673.6 4671.51 15676.5 4678.11 15682.3 4683C15687.6 4687.84 15695.3 4690.6 15703 4690.63L15799.3 4690.59C15807 4690.59 15814.7 4693.3 15820.5 4698.15C15826.3 4702.99 15829.2 4709.55 15829.2 4716.4L15829.2 4719.74C15829.7 4723.25 15828.7 4726.76 15827.3 4730.02C15825.8 4733.32 15823.9 4736.33 15821 4738.88C15818.1 4741.39 15814.7 4743.44 15810.9 4744.82C15807.5 4746.2 15803.2 4746.91 15799.3 4746.87Z"
    fill="#00A3FE" />
  <path
    d="M16109 4805.07C16109 4799.63 16108 4794.16 16106.1 4788.98C16103.7 4783.76 16099.9 4779.21 16094.6 4775.78C16087.3 4770.94 16079.1 4766.93 16071 4763.89C16058.4 4759.09 16045.4 4754.91 16031.9 4751.41C16015.1 4746.65 15998.2 4741.06 15981.9 4734.59C15966.9 4728.88 15952.5 4721.4 15939.9 4712.43C15928.4 4704.45 15918.7 4694.59 15911.5 4683.4C15904.3 4671.33 15900.9 4658 15900.9 4644.47C15900.9 4630.93 15904.3 4617.6 15911.5 4605.48C15918.7 4593.57 15928.8 4583.2 15941.3 4575.3C15955.3 4566.56 15970.7 4559.96 15987.1 4555.81C16006.3 4551.17 16026.1 4548.86 16045.8 4548.98C16066 4548.76 16086.3 4551.38 16105.5 4556.81C16122.4 4561.48 16137.8 4568.91 16151.3 4578.68C16163.8 4587.83 16173.5 4599.23 16180.2 4612.05C16182.1 4614.85 16183.1 4617.61 16184.5 4620.32C16186 4624.21 16186.5 4628.39 16185.5 4632.44C16185 4636.49 16183.1 4640.34 16180.2 4643.68C16177.3 4647.02 16174 4649.7 16169.6 4651.58C16165.3 4653.46 16160.5 4654.43 16156.1 4654.43L16134 4654.44C16127.7 4654.4 16121.9 4652.65 16116.6 4649.43C16111.4 4646.22 16107.5 4641.66 16105.6 4636.48C16105.6 4636.48 16105.6 4635.15 16105.6 4634.56C16103.2 4628.59 16098.8 4623.2 16093.5 4618.77C16087.7 4614.22 16081 4610.76 16073.3 4608.63C16064.1 4606 16054.5 4604.79 16044.4 4605.01C16035.2 4604.88 16025.6 4605.89 16017 4608.07C16009.7 4609.83 16003 4612.67 15997.2 4616.47C15992.4 4619.86 15988.5 4624.25 15985.7 4629.26C15983.3 4634.07 15981.8 4639.33 15981.8 4644.64C15981.8 4650.57 15983.7 4656.42 15987.1 4661.52C15990.5 4666.61 15995.8 4670.79 16001.6 4673.67C16019.9 4683.06 16039.6 4690.2 16059.8 4694.83C16079.6 4699.92 16098.4 4706.38 16116.7 4714.11C16131.6 4720.24 16145.6 4728.3 16157.6 4738.03C16168.2 4746.47 16176.4 4756.7 16182.7 4768.06C16188.5 4780.01 16190.9 4792.83 16190.9 4805.78C16191.4 4819.66 16187.5 4833.36 16180.8 4845.81C16174 4857.35 16163.9 4867.3 16151.9 4874.86C16138.4 4883.39 16123 4889.62 16106.6 4893.31C16087.9 4897.87 16067.6 4900.05 16047.9 4899.85C16034.9 4899.86 16021.9 4898.86 16008.9 4896.98C15996.4 4895.07 15983.8 4892.02 15971.8 4887.85C15959.8 4884.18 15948.7 4879.29 15938.1 4873.37C15928.5 4867.35 15919.3 4860.13 15911.6 4851.9C15904.4 4843.34 15898.1 4833.77 15894.2 4823.58L15894.2 4821.99C15892.8 4818.11 15892.3 4814.01 15893.3 4810C15893.8 4805.99 15895.7 4802.23 15898.6 4798.93C15901.5 4795.67 15905.3 4793.03 15909.2 4791.19C15913.5 4789.4 15918.3 4788.43 15922.6 4788.47L15943.8 4788.46C15950.1 4788.46 15956.4 4790.34 15961.7 4793.76C15967 4797.19 15970.8 4801.99 15972.7 4807.46C15973.2 4809.93 15974.2 4812.39 15975.6 4814.73C15979 4821.58 15984.3 4827.64 15991 4832.27C15998.8 4836.87 16006.9 4840.16 16016.1 4842C16026.2 4844.08 16036.8 4845.12 16047.9 4845.03C16057 4845.11 16066.2 4844.15 16075.3 4842.1C16082.1 4840.47 16088.3 4837.71 16094.1 4833.98C16099.4 4830.72 16103.2 4826.5 16105.6 4821.61C16108.1 4816.39 16109.5 4810.75 16109 4805.07Z"
    fill="#00A3FE" />
  <path
    d="M16512 4610.62L16451.3 4610.65C16443.1 4610.65 16435.4 4613.37 16430.1 4618.22C16424.4 4623.07 16421.5 4629.63 16421.5 4636.48L16421.6 4868.65C16421.6 4875.55 16418.2 4882.15 16412.4 4887.04C16407.1 4891.93 16399.4 4894.65 16391.2 4894.65L16370.1 4894.66C16362.4 4894.62 16354.6 4891.87 16348.9 4887.02C16343.6 4882.14 16340.2 4875.58 16340.2 4868.69L16340.1 4636.51C16340.1 4629.66 16336.7 4623.1 16331.4 4618.26C16325.6 4613.41 16317.9 4610.7 16310.2 4610.7L16251.5 4610.73C16243.3 4610.69 16236.1 4607.94 16230.3 4603.09C16224.5 4598.21 16221.6 4591.65 16221.6 4584.75L16221.6 4579.7C16221.6 4576.19 16222.1 4572.72 16223.5 4569.46C16225 4566.2 16226.9 4563.23 16229.8 4560.73C16232.7 4558.18 16236 4556.17 16239.9 4554.79C16243.3 4553.41 16247.1 4552.7 16251.4 4552.7L16512.4 4552.59C16520.6 4552.58 16528.3 4555.3 16533.6 4560.18C16539.4 4565.03 16542.3 4571.67 16542.3 4578.52L16542.3 4583.62C16542.8 4587.17 16541.8 4590.68 16540.4 4593.98C16539 4597.28 16537 4600.29 16534.1 4602.8C16531.3 4605.35 16527.9 4607.31 16524 4608.69C16520.2 4610.03 16516.3 4610.7 16512 4610.62Z"
    fill="#00A3FE" />
  <path
    d="M16645 4894.55L16623.4 4894.56C16615.6 4894.52 16607.9 4891.76 16602.2 4886.92C16596.9 4882.03 16593.5 4875.47 16593.5 4868.58L16593.4 4578.37C16593.4 4571.52 16596.7 4564.92 16602 4560.07C16607.8 4555.18 16615.5 4552.42 16623.2 4552.37L16644.9 4552.36C16652.6 4552.36 16660.3 4555.12 16666.1 4559.96C16671.4 4564.85 16674.7 4571.45 16674.7 4578.34L16674.9 4868.55C16674.9 4875.44 16671.5 4882.04 16666.2 4886.93C16660.4 4891.83 16652.7 4894.54 16645 4894.55Z"
    fill="#00A3FE" />
  <path
    d="M17040.4 4894.38L17006.2 4894.4C17000.9 4894.4 16995.6 4893.23 16991.3 4891.06C16986.9 4888.89 16983.1 4885.72 16980.7 4881.91L16886.7 4748.46C16883.3 4743.7 16878 4740.03 16871.8 4737.98C16866 4735.94 16859.3 4735.65 16853 4737.2C16846.7 4738.71 16841.4 4741.97 16837.1 4746.44C16833.3 4750.91 16831.3 4756.34 16831.3 4761.98L16831.4 4868.48C16831.4 4875.38 16828 4881.98 16822.2 4886.87C16816.9 4891.76 16809.2 4894.48 16801.1 4894.48L16779.9 4894.49C16772.2 4894.49 16764.5 4891.78 16758.7 4886.9C16752.9 4882.01 16750 4875.41 16750 4868.52L16749.9 4578.31C16749.9 4571.41 16752.8 4564.81 16758.5 4559.92C16764.3 4555.07 16772 4552.31 16779.7 4552.31L16814.4 4552.29C16819.2 4552.33 16824.5 4553.46 16828.8 4555.63C16833.2 4557.84 16837 4560.98 16839.9 4564.78L16933.9 4698.52C16937.2 4703.36 16942.5 4707.12 16948.3 4709.21C16954.6 4711.25 16961.3 4711.58 16967.6 4710.08C16973.9 4708.57 16979.1 4705.31 16983.5 4700.79C16987.3 4696.32 16989.3 4690.81 16989.2 4685.17L16989.2 4578.21C16989.2 4571.36 16992.6 4564.75 16998.3 4559.91C17003.6 4555.01 17011.3 4552.25 17019 4552.21L17040.2 4552.2C17048.4 4552.2 17056.1 4554.95 17061.4 4559.8C17067.2 4564.68 17070.1 4571.28 17070.1 4578.18L17070.2 4868.38C17070.2 4875.28 17067.3 4881.88 17061.6 4886.77C17056.3 4891.66 17048.6 4894.38 17040.4 4894.38Z"
    fill="#00A3FE" />
  <path
    d="M17453.1 4840.52C17453.1 4844.16 17452.1 4847.75 17450.7 4851.09C17448.7 4854.4 17446.3 4857.4 17443 4859.83C17440.5 4862 17437.2 4864.3 17433.8 4866.64C17424.7 4872.79 17414.1 4877.93 17403.5 4882.03C17389.5 4887.3 17375.1 4891.36 17360.1 4894.08C17340.9 4897.47 17321.6 4899.11 17302.4 4898.91C17278.8 4899.17 17254.7 4895.5 17232.5 4888.04C17212.3 4881.07 17193.5 4870.09 17178.6 4856.01C17163.2 4840.98 17151.1 4823.35 17143.9 4804.22C17135.2 4781.54 17130.9 4757.72 17131.3 4733.82L17131.3 4713.69C17130.8 4689.75 17135.2 4665.97 17143.3 4643.16C17150.5 4624.02 17161.6 4606.34 17177 4591.17C17191 4577.16 17208.8 4566.17 17229 4559.1C17250.7 4551.53 17273.8 4547.76 17296.9 4548.04C17319.5 4547.57 17342.2 4550.36 17363.8 4556.28C17381.2 4561.12 17397.1 4569.06 17410.6 4579.62C17423.1 4589.64 17433.2 4601.84 17440 4615.46C17441.9 4619.26 17443.8 4623.18 17445.3 4627.19C17446.7 4631.12 17447.2 4635.26 17446.2 4639.31C17445.7 4643.36 17443.8 4647.21 17440.9 4650.55C17438 4653.89 17434.7 4656.61 17430.3 4658.45C17426 4660.33 17421.7 4661.3 17416.9 4661.3L17398.1 4661.31C17391.8 4661.27 17385.6 4659.47 17380.3 4656.26C17375.4 4653.04 17371.6 4648.49 17369.7 4643.35L17367.3 4637.96C17363.9 4631.24 17359.1 4625.14 17353.3 4620.13C17347 4614.99 17339.3 4611.07 17331.1 4608.69C17321 4605.9 17310.4 4604.56 17299.8 4604.78C17287.3 4604.24 17275.3 4606.46 17264.2 4611.23C17253.1 4615.99 17243.5 4623.18 17236.7 4632.09C17220.4 4656.66 17212.7 4684.91 17214.6 4713.19L17214.6 4733.79C17212.7 4762.33 17220.9 4790.73 17238.8 4814.92C17246.5 4823.9 17256.6 4831.12 17268.6 4835.92C17280.2 4840.72 17293.2 4842.97 17306.2 4842.46C17314.9 4842.58 17323.5 4842.04 17331.7 4840.87C17338 4839.99 17344.2 4838.6 17350.5 4836.76C17354.8 4835.34 17359.2 4833.54 17363 4831.41C17366.4 4829.7 17368.8 4827.77 17371.7 4825.6L17371.7 4792.68C17371.7 4785.78 17368.3 4779.18 17363 4774.3C17357.2 4769.41 17349.5 4766.7 17341.8 4766.7L17327.3 4766.71C17319.6 4766.71 17311.9 4764 17306.6 4759.15C17300.8 4754.31 17297.5 4747.75 17297.5 4740.9C17297.5 4734 17300.8 4727.4 17306.1 4722.51C17311.9 4717.62 17319.6 4714.9 17327.3 4714.9L17423.6 4714.86C17427.5 4714.86 17431.3 4715.52 17434.7 4716.82C17438.6 4718.15 17441.9 4720.03 17444.8 4722.45C17447.2 4724.88 17449.6 4727.76 17451.1 4730.89C17452.5 4734.02 17453.5 4737.41 17453.5 4740.83L17453.1 4840.52Z"
    fill="#00A3FE" />
</svg>