<svg width="24" height="27" viewBox="0 0 24 27" fill="none" xmlns="http://www.w3.org/2000/svg">
  <path fill-rule="evenodd" clip-rule="evenodd"
    d="M16.1653 19.7055L15.4899 19.8353V20.619C15.4899 21.9624 14.5217 23.1053 13.1709 23.5289V25.6388C13.1709 26.207 12.6515 26.6674 12.0114 26.6674C11.3708 26.6674 10.8514 26.207 10.8514 25.6388V23.5289C9.50057 23.1053 8.53236 21.9624 8.53236 20.619V19.8927C8.43187 19.875 8.33089 19.8564 8.2304 19.837L7.54631 19.7055C4.20789 19.0639 1.56612 16.8019 0.72548 13.8649C0.105626 11.7007 0.105626 9.43363 0.72548 7.2694C1.56612 4.3329 4.20789 2.07046 7.54631 1.42886L8.2304 1.29733C10.6195 0.838267 13.0922 0.838267 15.4812 1.29733L16.1653 1.42886C19.5037 2.07046 22.1455 4.33289 22.9861 7.26981C23.606 9.43362 23.606 11.7007 22.9861 13.8649C22.1455 16.8019 19.5037 19.0639 16.1653 19.7055ZM13.1709 20.1367C13.0361 20.146 12.9018 20.1536 12.767 20.1599C12.1288 20.1903 11.4896 20.1886 10.8514 20.1553V20.619C10.8514 21.1868 11.3708 21.6476 12.0114 21.6476C12.6515 21.6476 13.1709 21.1868 13.1709 20.619V20.1367ZM13.2091 6.48196C13.6091 6.76566 13.6743 7.28373 13.354 7.63826L11.4674 9.72997H14.1758C14.5323 9.72997 14.8575 9.91123 15.0121 10.1966C15.1662 10.4816 15.1227 10.8201 14.9 11.0671L11.808 14.4956C11.4877 14.8505 10.9041 14.9079 10.504 14.6242C10.104 14.34 10.0392 13.8224 10.3591 13.4674L12.2457 11.3757H9.53727C9.18072 11.3757 8.85559 11.1944 8.70147 10.9095C8.54687 10.6245 8.59036 10.286 8.81308 10.039L11.9051 6.61053C12.2254 6.25558 12.809 6.19783 13.2091 6.48196Z"
    fill="url(#paint0_linear_2_336)" />
  <defs>
    <linearGradient id="paint0_linear_2_336" x1="0.26071" y1="0.834052" x2="16.8514" y2="30.2682"
      gradientUnits="userSpaceOnUse">
      <stop stop-color="#09C6F9" />
      <stop offset="1" stop-color="#045DE9" />
    </linearGradient>
  </defs>
</svg>