<svg width="24" height="21" viewBox="0 0 24 21" fill="none" xmlns="http://www.w3.org/2000/svg">
  <path fill-rule="evenodd" clip-rule="evenodd"
    d="M7.76834 0.386665C10.2854 -0.128888 12.905 -0.128888 15.4221 0.386665C19.0567 1.13028 21.895 3.60687 22.7473 6.77817C23.3382 8.97444 23.3382 11.2601 22.7473 13.4564C21.895 16.6277 19.0567 19.1043 15.4221 19.8479C12.905 20.3634 10.2854 20.3634 7.76834 19.8479C4.13377 19.1043 1.29539 16.6277 0.44315 13.4564C-0.147717 11.2601 -0.147717 8.97444 0.44315 6.77817C1.29539 3.60687 4.13377 1.13028 7.76834 0.386665ZM13.5147 7.88306C13.9176 7.74227 14.3172 8.09087 14.1563 8.44244L13.1509 10.6353C12.9755 11.0181 12.6277 11.3212 12.189 11.4746L9.67573 12.3515C9.27329 12.4923 8.87327 12.1437 9.03464 11.7921L10.04 9.59918C10.2154 9.21641 10.5628 8.91333 11.0019 8.75989L13.5147 7.88306ZM15.5303 8.92217C16.1748 7.5163 14.5761 6.12182 12.9654 6.68375L10.4521 7.56098C9.63708 7.84553 8.99162 8.40872 8.66551 9.11987L7.66062 11.3124C7.01613 12.7182 8.61478 14.1127 10.2255 13.5508L12.7388 12.6735C13.5533 12.389 14.1993 11.8258 14.5249 11.1147L15.5303 8.92217Z"
    fill="url(#paint0_linear_2_338)" />
  <defs>
    <linearGradient id="paint0_linear_2_338" x1="0.000121153" y1="-0.0934785" x2="11.3113" y2="25.4093"
      gradientUnits="userSpaceOnUse">
      <stop stop-color="#09C6F9" />
      <stop offset="1" stop-color="#045DE9" />
    </linearGradient>
  </defs>
</svg>